<?xml version="1.0" encoding="utf-8"?>
<!-- Generator: Adobe Illustrator 24.3.0, SVG Export Plug-In . SVG Version: 6.00 Build 0)  -->
<svg version="1.1" id="adf35c87-b782-4e77-99e1-73b1e980183a"
	 xmlns="http://www.w3.org/2000/svg" xmlns:xlink="http://www.w3.org/1999/xlink" x="0px" y="0px" viewBox="0 0 1130 814.8"
	 style="enable-background:new 0 0 1130 814.8;" xml:space="preserve">
<style type="text/css">
	.st0{opacity:0.1;fill:#C42127;enable-background:new    ;}
	.st1{opacity:0.9;}
	.st2{fill:#663639;}
	.st3{fill:#66363B;}
	.st4{fill:#C42127;}
	.st5{fill:#E6E8EC;}
	.st6{opacity:0.5;fill:#C42127;enable-background:new    ;}
	.st7{fill:#3A3768;}
	.st8{opacity:0.1;enable-background:new    ;}
	.st9{fill:url(#SVGID_1_);}
	.st10{fill:#EE8E9E;}
	.st11{fill:#65617D;}
	.st12{fill:#3F3D56;}
	.st13{opacity:5.000000e-02;enable-background:new    ;}
	.st14{fill:#E8EAF2;}
	.st15{fill:#303D5C;}
	.st16{fill:#4C292C;}
	.st17{opacity:0.1;fill:#3F3D56;enable-background:new    ;}
	.st18{fill:url(#SVGID_2_);}
	.st19{fill:#5B3134;}
	.st20{fill:#5B3135;}
	.st21{fill:#5B3133;}
	.st22{opacity:0.1;}
</style>
<path class="st0" d="M656.5,126.6c-72.4-2.5-141.4-25.9-207.3-51.5S318.1,21.1,247.4,7.6c-45.5-8.7-97.5-10-134.1,14.4
	C78,45.4,66.6,86,60.5,123.6c-4.6,28.3-7.3,58,5.3,84.5c8.8,18.4,24.3,33.8,35.1,51.4c37.4,61.2,11,136.8-29.6,196.6
	c-19,28.1-41.1,54.8-55.8,84.7s-21.5,64.1-8.6,94.5c12.8,30.2,43.1,52.9,76,68.8c66.8,32.4,145.5,41.7,222.3,46.9
	c169.9,11.6,340.8,6.6,511.2,1.5c63.1-1.9,126.4-3.8,188.4-13.5c34.4-5.4,70-14,95-34.8c31.8-26.3,39.6-70.9,18.3-104
	c-35.7-55.4-134.3-69.2-159.3-128.6c-13.7-32.7,0.4-69.2,20.3-99.5c42.8-65.1,114.5-122.2,118.3-196.6
	c2.6-51.1-31.9-102.3-85.2-126.5c-55.9-25.3-133.4-22.2-174.6,19.8C795.1,112.1,720.5,128.8,656.5,126.6z"/>
<g class="st1">
	<path class="st2" d="M726.6,238.9h5.3c1.3,0,2.3,1,2.3,2.3v77.2c0,1.3-1,2.3-2.3,2.3h-5.3c-1.3,0-2.3-1-2.3-2.3v-77.2
		C724.3,239.9,725.3,238.9,726.6,238.9z"/>
	<path class="st3" d="M397,174.9h1c1.3,0,2.3,1,2.3,2.3v22.3c0,1.3-1,2.3-2.3,2.3h-1c-1.3,0-2.3-1-2.3-2.3v-22.3
		C394.7,175.9,395.7,174.9,397,174.9z"/>
	<path class="st3" d="M396.8,224.1h1.7c1.3,0,2.3,1,2.3,2.3v42.3c0,1.3-1,2.3-2.3,2.3h-1.7c-1.3,0-2.3-1-2.3-2.3v-42.3
		C394.5,225.2,395.5,224.1,396.8,224.1z"/>
	<path class="st3" d="M396.9,287.4h1.4c1.3,0,2.3,1,2.3,2.3v42.7c0,1.3-1,2.3-2.3,2.3h-1.4c-1.3,0-2.3-1-2.3-2.3v-42.7
		C394.6,288.4,395.6,287.4,396.9,287.4z"/>
	<path class="st4" d="M436.8,85.9h253.8c21.5,0,39,17.5,39,39v596.3c0,21.5-17.5,39-39,39H436.8c-21.5,0-39-17.5-39-39V124.9
		C397.9,103.4,415.3,85.9,436.8,85.9z"/>
	<path class="st5" d="M535.6,106.1h38.6c2.1,0,3.9,1.7,3.9,3.9v1.7c0,2.1-1.7,3.9-3.9,3.9h-38.6c-2.1,0-3.9-1.7-3.9-3.9V110
		C531.7,107.8,533.5,106.1,535.6,106.1z"/>
	<circle class="st5" cx="590.4" cy="110.8" r="5.3"/>
</g>
<path class="st6" d="M682.8,103.5h-38v4.6c0,12-9.7,21.7-21.7,21.7c0,0,0,0,0,0H502c-12,0-21.7-9.7-21.7-21.7v-4.6h-35.6
	c-14.6,0-26.4,11.8-26.4,26.4l0,0v586.4c0,14.6,11.8,26.3,26.4,26.3h238.1c14.6,0,26.3-11.8,26.3-26.3V129.9
	C709.1,115.3,697.3,103.5,682.8,103.5z"/>
<rect x="418.6" y="148.5" class="st5" width="291" height="26.9"/>
<rect x="427.5" y="154.1" class="st7" width="24.6" height="2.2"/>
<rect x="427.5" y="160.8" class="st7" width="24.6" height="2.2"/>
<rect x="427.5" y="167.5" class="st7" width="24.6" height="2.2"/>
<path class="st7" d="M690,164.5h-0.9l-0.3-0.3c1.1-1.4,1.8-3.1,1.8-4.9c0-4.1-3.4-7.4-7.5-7.4c-4.1,0-7.4,3.4-7.4,7.5
	c0,4.1,3.4,7.4,7.5,7.4c1.8,0,3.5-0.6,4.9-1.8l0.3,0.3v0.9l5.7,5.8l1.7-1.7L690,164.5z M683.1,164.5c-2.9,0-5.2-2.3-5.2-5.2
	c0-2.9,2.3-5.2,5.2-5.2c2.9,0,5.2,2.3,5.2,5.2c0,0,0,0,0,0C688.3,162.2,686,164.5,683.1,164.5C683.1,164.5,683.1,164.5,683.1,164.5z
	"/>
<circle class="st5" cx="439.9" cy="224.6" r="12.3"/>
<rect x="478.5" y="236.9" class="st5" width="171.3" height="6.7"/>
<rect x="479" y="251.4" class="st5" width="171.3" height="6.7"/>
<rect x="479.6" y="266" class="st5" width="171.3" height="6.7"/>
<circle class="st5" cx="439.9" cy="308.5" r="12.3"/>
<rect x="478.5" y="320.8" class="st5" width="171.3" height="6.7"/>
<rect x="479" y="335.4" class="st5" width="171.3" height="6.7"/>
<rect x="479.6" y="349.9" class="st5" width="171.3" height="6.7"/>
<circle class="st5" cx="439.9" cy="392.5" r="12.3"/>
<rect x="478.5" y="404.8" class="st5" width="171.3" height="6.7"/>
<rect x="479" y="419.3" class="st5" width="171.3" height="6.7"/>
<rect x="479.6" y="433.9" class="st5" width="171.3" height="6.7"/>
<circle class="st5" cx="439.9" cy="476.4" r="12.3"/>
<rect x="478.5" y="488.7" class="st5" width="171.3" height="6.7"/>
<rect x="479" y="503.3" class="st5" width="171.3" height="6.7"/>
<rect x="479.6" y="517.8" class="st5" width="171.3" height="6.7"/>
<circle class="st5" cx="439.9" cy="560.4" r="12.3"/>
<rect x="478.5" y="572.7" class="st5" width="171.3" height="6.7"/>
<rect x="479" y="587.2" class="st5" width="171.3" height="6.7"/>
<rect x="479.6" y="601.8" class="st5" width="171.3" height="6.7"/>
<circle class="st5" cx="439.9" cy="644.3" r="12.3"/>
<rect x="478.5" y="656.6" class="st5" width="171.3" height="6.7"/>
<rect x="479" y="671.2" class="st5" width="171.3" height="6.7"/>
<rect x="479.6" y="685.7" class="st5" width="171.3" height="6.7"/>
<circle class="st8" cx="650.3" cy="692.5" r="31.3"/>
<circle class="st4" cx="650.3" cy="692.5" r="28"/>
<path class="st4" d="M314.1,115.8l-54.7,29.6c-0.5,0.3-0.7,1-0.4,1.6c0.1,0.2,0.3,0.3,0.5,0.4l9.3,3.5c0.5,0.2,1,0.6,1.2,1.1
	l7.2,14.9c0.1,0.7,1.4,0.8,1.4,0.2l-1.1-12.3c0.1-0.9,0.4-1.8,1-2.5l28.4-27.8c0.2-0.2,0.4-0.2,0.6-0.2c0.3,0.1,0.5,0.5,0.4,0.8
	c0,0.1-0.1,0.1-0.1,0.2l-24.5,30.1c-0.5,0.7-0.9,1.6-1,2.5l-1.4,10.7c0.1,0.9,0.9,1.3,1.4,0.4l5.3-6.2c0.3-0.5,1-0.6,1.5-0.3
	c0,0,0,0,0,0l13.6,9.9c0.5,0.4,1.2,0.3,1.5-0.2c0.1-0.1,0.2-0.3,0.2-0.4l11.1-54.7c0.1-0.6-0.2-1.2-0.8-1.3
	C314.6,115.7,314.3,115.7,314.1,115.8L314.1,115.8z"/>
<path class="st4" d="M892,127.5l-54.7,29.6c-0.5,0.3-0.7,1-0.4,1.6c0.1,0.2,0.3,0.3,0.5,0.4l9.3,3.5c0.5,0.2,1,0.6,1.2,1.1l7.3,14.9
	c0.1,0.7,1.3,0.8,1.4,0.2l-1.1-12.4c0.1-0.9,0.4-1.8,1-2.5l28.4-27.8c0.2-0.2,0.4-0.2,0.6-0.2c0.3,0.1,0.5,0.5,0.5,0.8
	c0,0.1-0.1,0.1-0.1,0.2l-24.5,29.9c-0.5,0.7-0.9,1.6-1,2.5l-1.5,10.7c0.1,0.9,0.8,1.3,1.4,0.4l5.3-6.2c0.3-0.5,1-0.6,1.5-0.3
	c0,0,0,0,0,0l13.6,9.9c0.5,0.4,1.2,0.3,1.5-0.2c0.1-0.1,0.2-0.3,0.2-0.4l11.1-54.7c0.1-0.6-0.2-1.2-0.8-1.3
	C892.5,127.2,892.2,127.3,892,127.5L892,127.5z"/>
<path class="st4" d="M554.3,19.1l-37.4,20.2c-0.4,0.2-0.5,0.7-0.3,1.1c0.1,0.2,0.2,0.3,0.4,0.3l6.4,2.4c0.4,0.1,0.7,0.4,0.8,0.8
	l5,10.2c0.1,0.4,0.9,0.6,0.9,0.1l-0.8-8.4c0-0.6,0.3-1.2,0.7-1.7l19.4-19c0.1-0.1,0.3-0.2,0.4-0.1c0.2,0.1,0.4,0.3,0.3,0.5
	c0,0.1,0,0.1-0.1,0.2l-16.7,20.4c-0.4,0.5-0.6,1.1-0.7,1.7l-1,7.3c0.1,0.6,0.6,0.9,1,0.3l3.6-4.2c0.2-0.3,0.7-0.4,1-0.2l9.3,6.8
	c0.3,0.2,0.8,0.2,1-0.2c0.1-0.1,0.1-0.2,0.1-0.3l7.6-37.3c0.1-0.4-0.1-0.8-0.5-0.9C554.6,19,554.4,19,554.3,19.1L554.3,19.1z"/>
<path class="st4" d="M766.9,0.1l-37.4,20.2c-0.4,0.2-0.5,0.7-0.3,1.1c0.1,0.1,0.2,0.3,0.4,0.3l6.4,2.4c0.4,0.1,0.7,0.4,0.8,0.8
	l5,10.2c0.1,0.4,0.9,0.6,0.9,0.1l-0.7-8.4c0-0.6,0.3-1.2,0.7-1.7l19.4-19c0.1-0.1,0.3-0.2,0.4-0.1c0.2,0.1,0.4,0.3,0.3,0.5
	c0,0.1,0,0.1-0.1,0.2L746,27.1c-0.4,0.5-0.6,1.1-0.7,1.7l-1,7.3c0.1,0.6,0.6,0.9,1,0.3l3.6-4.2c0.2-0.3,0.7-0.4,1-0.2c0,0,0,0,0,0
	l9.3,6.8c0.3,0.2,0.8,0.2,1-0.2c0.1-0.1,0.1-0.2,0.1-0.3L768,0.9c0.1-0.4-0.1-0.8-0.5-0.9C767.3,0,767.1,0,766.9,0.1L766.9,0.1z"/>
<path class="st4" d="M909,259.8l-110.3-9.1c-1.1-0.1-2.1,0.7-2.2,1.8c-0.1,0.5,0.1,0.9,0.3,1.3l10.5,14.3c0.6,0.8,0.9,1.9,0.7,2.9
	l-3.7,29.3c-0.4,1.1,1.2,2.6,1.9,1.6l10.4-19.5c1-1.3,2.4-2.3,3.9-2.7l69.3-13.8c0.4-0.1,0.8,0,1.1,0.3c0.4,0.5,0.4,1.2,0,1.6
	c-0.1,0.1-0.3,0.2-0.4,0.3l-65.5,20.8c-1.5,0.6-2.8,1.5-3.8,2.7l-12.5,14.5c-0.7,1.5,0,2.7,1.7,2.1l13.9-4.1c1-0.4,2.2,0.1,2.6,1.1
	l10.6,27.9c0.4,1,1.6,1.5,2.6,1.1c0.2-0.1,0.4-0.2,0.6-0.4l69.8-70.6c0.8-0.8,0.8-2.1,0-2.8C909.9,260.1,909.5,259.9,909,259.8z"/>
<linearGradient id="SVGID_1_" gradientUnits="userSpaceOnUse" x1="-344.3618" y1="-34.6205" x2="-344.3618" y2="462.52" gradientTransform="matrix(-1 0 0 -1 365.16 773.42)">
	<stop  offset="0" style="stop-color:#808080;stop-opacity:0.25"/>
	<stop  offset="0.54" style="stop-color:#808080;stop-opacity:0.12"/>
	<stop  offset="1" style="stop-color:#808080;stop-opacity:0.1"/>
</linearGradient>
<path class="st9" d="M611.7,371.1c1.1,1.4,2.3,2.7,3.8,3.8c0.9,0.8,1.9,1.6,2.9,2.3c0.3,0.2,0.6,0.4,0.9,0.6c0,0-0.1,0.1-0.1,0.2
	c-0.2,0.4-0.3,0.9-0.3,1.4c0.2,0.6,0.6,1.1,1.1,1.4c2.3,2.2,3.9,5,4.5,8.1c0.3,1.8-0.9,3.8-0.8,5.6c0.2,1.8,0.7,3.6,1.4,5.2
	c1.5,3.9,3.2,7.9,6.2,10.7c0.7,6.2,3.1,12.2,7,17.1c3.2,4.1,7.5,7.2,11.7,10.3c1.3,1.1,2.8,2,4.3,2.7c1.4,0.5,2.8,0.9,4.3,1.2
	c12.4,2.5,25,3.9,37.7,4.3c0.4,7.5,0.5,15.1,0.5,22.6c0.1,1.2-0.1,2.5-0.5,3.7c-0.6,1.1-1.3,2.1-2.2,3.1c-2.9,3.8-3,9.1-2.8,13.9
	c0.3,5.6,1,11.2,2,16.8c1.3,7.1,0.1,14.9,2.6,21.7c1,2.7,2,5.3,3,8c0.3,0.7,0.5,1.6,0.6,2.4c0,1.8-1.2,3.2-2,4.8
	c-1.2,2.2-1.8,4.7-1.8,7.3c0,0.3,0.1,0.6,0.2,0.8c0.3,0.4,1,0.4,1.5,0.3c2.2-0.3,4.4-0.5,6.7-0.6c-0.4,0.5-0.8,1-1.1,1.6
	c-0.5,0.9-1,1.9-1.4,2.9c-0.8,1.7-1.4,3.4-1.9,5.2c-0.1,0.3-0.1,0.5-0.2,0.8c-0.1,0.5-0.2,1.1-0.3,1.6c-0.5,3.2-0.7,6.4-0.6,9.6
	c-0.3,6-0.6,12.2-1.2,14.1c-0.8,2.6,0.2,6.7,1.2,10.7c0,2.7,0.5,5.4,1.5,8c0.1,2.8,0.4,5.7,1,8.4c3.5,19.5,7.1,38.9,11,58.3
	c0.3,1.7,0.7,3.4,1.1,5c1.5,5.4,4,10.4,7.5,14.8c3.1,3.9,5.7,8.1,7.8,12.5c-0.2,1.1-0.5,2.1-0.7,3.2c-2.2,9.3-5.1,18.5-6.1,27.9
	c-0.4,3.8-0.5,7.7-2,11.2c-0.8,1.8-1.9,3.5-2,5.4c-0.1,1.2,0.2,2.5,0.8,3.5c-0.3,0.2-0.5,0.4-0.8,0.6l-0.4,0.3
	c-2.8,2.3-6.7,2.7-10.2,3.6s-7.3,2.8-8.3,6.2c-0.1,0.2-0.1,0.4-0.2,0.7c-0.6,3.2,1.3,6.6,4,8.5c2.9,2,6.5,2.6,10,3.1
	s7.1,0.8,10.3,2.4c2.7,1.4,5,3.6,8,4.6l0.5,0.2c-0.7,0.4-1.3,0.8-2,1.1c-3,1.5-6.2,2.5-9.6,3c-3.4,0.5-7.4,0.7-9.2,3.6l0,0
	c-1.4,2.4-0.4,5.7,1.7,7.7s4.9,2.8,7.6,3.4c6.3,1.2,12.6,2,19,2.4l6.2,0.5c6,0.5,12.1,0.9,18.2,1c7.5,0,15-0.6,22.4-2
	c0.7,0,1.3-0.3,1.8-0.9c0.2-0.4,0.3-0.9,0.3-1.4c-0.2-7.6-1.1-15.2-2.8-22.6c-0.5-2.2-3.5,0.8-5.2,2.7c-0.2-1.1-0.5-2.2-0.8-3.3
	l1.3-0.6c1-0.4,1.9-1.1,2.4-2c0.3-0.8,0.4-1.6,0.3-2.3c-0.2-4.9-0.5-9.9-2.9-14.2c-1.5-2.6-3.4-4.9-5.7-6.9
	c-0.7-15.3-2.2-30.7-5.5-45.6c-1.7-7.7-3.8-15.4-8.3-21.8c-0.5-0.8-1.2-1.6-1.8-2.4c-0.5-7.4-1.4-14.7-2.7-21.9c-0.3-1-0.3-2,0-2.9
	c0.4-0.8,1-1.6,1.6-2.2c2.7-3.4,1.6-8.3,1.3-12.7c-0.4-6.2,1-12.4,2.5-18.5c1.8-7.5,3.6-15,5.4-22.5c0.4-2.1,1.1-4.2,1.9-6.2
	c1.3-2.8,3.2-5.3,4.9-7.9c5-8,7.4-17.3,6.8-26.7c1,0.4,2,0.7,3.1,1.1c0.8-6.3-1.9-13.4,0-19.3c3.3-2.4,5.9-5.5,7.7-9.1
	c1.5-3.3,1.9-7.1,3.5-10.3c0.9-1.8,2.1-3.6,2.6-5.5c0.8-3-0.2-6.1-0.2-9.2c0.1-6.7,5-12.9,3.9-19.5c-0.5-3.1-2.3-6-2.2-9.2
	c0.1-1.7,0.6-3.4,1.3-5c3.7-9.8,7.3-20.1,5.4-30.4c-0.5-2.6-1.3-5.2-1.2-7.9c0.2-3,1.6-6,1.2-9c-0.2-1.2-0.6-2.2-1.4-3.2
	c1.3-2,2.4-4.2,3.3-6.4c0.6-1.3,0.9-2.7,0.9-4.1c-0.3-2-1.3-3.7-2.9-4.9c-1.6-1.1-3.2-2.1-5-2.9c-0.6-0.2-1.1-0.6-1.5-1
	c-0.3-0.5-0.6-1-0.8-1.6c-1-1.7-3.1-2.2-4.8-3.3c-6.1-3.7-5.5-13.3-10.7-18.2c-3.6-3.2-9-3.5-13-0.7c-0.5,0.5-1.1,0.8-1.8,0.9
	c-0.7-0.2-1.3-0.5-1.8-1c-1.3-0.9-2.8-1.3-4.4-1.2c-1-3.8-1.4-7.7-1.3-11.7h0.5c0.6,0,1.2,0,1.8-0.2c2.7-0.8,4.2-3.5,5.3-6.1
	c1-2.2,1.7-4.4,2.3-6.7c0.1-0.2,0.1-0.4,0.2-0.6c5.1,3.6,11.1,7.4,12.5,6.6c2.6-1.5-11.8-11.7-11.8-11.7l0,0l0,0
	c1.7-1.5,2.6-4.2,3-6.6c0.8-4.8,1.2-9.7,0.1-14.5c-1.1-4.7-4-9.2-8.2-11.4c-1.9-1-4.2-1.7-5.6-3.2l0,0c-0.2-0.2-0.4-0.5-0.5-0.7l0,0
	c-0.1-0.1-0.2-0.3-0.2-0.4c-0.2-0.4-0.4-0.8-0.6-1.2c-0.8-0.9-2.2-0.6-3.4-0.5h-0.4h-0.3h-0.3c-4.3,0.1-8.4-2.3-12.7-2.3
	c-4.7,0-8.8,2.7-12.9,4.6c-0.8,0.4-1.6,0.7-2.4,1.1c-2.6,1.2-4.7,2.5-6,5.5c-0.8,1-1.4,2.1-1.7,3.3c-0.1,0.6-0.2,1.1-0.2,1.7
	c-11.2,11.1-11.3,29.2-0.2,40.5c3.6,3.6,8.1,6.2,13.1,7.5c0.1,0.3,0.2,0.6,0.3,0.8c0.9,2.6,1.3,5.3,1.2,8c0,0.2,0,0.4,0,0.6
	c-2.2,0.5-4.3,1.4-6.2,2.5c-2.4,1.4-4.3,3.7-5.2,6.4c-0.1,0.2-0.1,0.4-0.2,0.6c-1.5-0.5-3.1-0.8-4.7-0.8c-1.5,0-3.1,0.1-4,1.2
	c-0.4,0.4-0.6,1-0.8,1.5c-0.5,0.5-0.7,1.4-1,2.1c-1.2,2.1-4.3,1.4-6.7,2c-2.5,0.6-4.6,3-7.2,3c-1-0.2-2-0.2-3-0.1
	c-1,0.2-1.8,1.6-1,2.3c-1.2-0.1-2.4,0.4-3,1.5c-0.7,0.9-1.2,2.1-2,2.9c-0.7-1-1.9-1.5-3.1-1.2c-1.2,0.3-2.3,0.7-3.3,1.3
	c-0.5,0.2-0.9,0.4-1.5,0.5c-0.6,0-1.2,0-1.8-0.2c-2.8-0.5-5.7-0.1-8.3,1.2c-2.3,1.1-4.5-0.9-7-1.1c-0.9,0-1.8-0.2-2.6-0.8
	c-0.5-0.6-0.8-1.3-1-2c-1.1-3.3-3.9-5.7-7.3-6.5c1.4-4.3-0.8-8.9-5-10.5c0.3-3-0.8-6-3.1-7.9c-0.6-0.4-1.1-0.8-1.6-1.2
	c-0.7-0.8-1.2-1.7-1.5-2.7l-2.2-5.9c-1-0.2-1.8-0.6-2.7-0.8c0-0.2,0-0.4,0-0.6c0-2-0.4-4-1-5.9c-1.1-3.1-2.7-6-4.7-8.6
	c-2.1-3-4.5-5.9-7.6-7.7c-1-0.6-2.1-1.1-3.2-1.5l-5.7-2.4c-0.3-0.2-0.7-0.3-1-0.3c-1.5,0-1.8,2.4-1,3.6c1.7,2.6,5.7,3.3,6.8,6.2
	c-1.9,0.1-3.6,1.3-4.1,3.2c0,0.5-0.2,0.9-0.5,1.3c-0.5,0.4-1.3,0.2-1.9,0.5c-1,0.5-0.6,2.1-0.7,3.2c-0.2,1-0.6,2-1,2.9
	C610.3,367.6,610.6,369.6,611.7,371.1z M748.8,772.1c0-0.6-0.1-1.2-0.1-1.8c0.1,0.3,0.2,0.6,0.3,0.9c1,2.6,2.1,5.2,3.3,7.8l-0.2-0.1
	c-0.9-0.4-1.8-0.7-2.7-0.8c-0.2,0-0.5,0-0.8-0.1C749,776.1,749,774.1,748.8,772.1L748.8,772.1z"/>
<path class="st10" d="M733.3,386.3c-0.1,4.2-1.5,8.2-1.7,12.4c12.3,0.6,24.4-5.4,36.6-3.5c-3.4-2.2-5.2-6.2-6.3-10.1
	c-1.4-5-1.8-10.3-1.2-15.5c0-0.3,0.1-0.6,0.2-0.9c0.5-2,1.6-4.9,1.3-6.5c-0.4-2.1-2.4-1.7-4.2-1.6c-5.5,0.4-11,1.1-16.4,2.1
	c-1.4,0.2-15.2,3.7-15.4,3.3c2.4,3.9,4.4,8,6,12.3C732.9,380.9,733.3,383.6,733.3,386.3z"/>
<path class="st10" d="M611.7,373.4c1.1,1.4,2.3,2.7,3.8,3.8c0.9,0.8,1.9,1.5,2.9,2.2c1.8,1.4,3.9,2.2,6.2,2.5c2.9,0.2,9.1-1.5,11-4
	c0.8-1.3,1.1-2.7,1-4.2c0-2-0.4-4-1-5.9c-1.1-3.1-2.7-6-4.7-8.6c-2.1-2.9-4.5-5.8-7.6-7.6c-1.1-0.6-2.1-1.1-3.2-1.5l-5.7-2.3
	c-0.3-0.2-0.7-0.3-1-0.3c-1.5,0-1.8,2.4-1,3.6c1.7,2.6,5.7,3.3,6.8,6.2c-1.9,0.1-3.6,1.3-4.1,3.2c0,0.5-0.2,0.9-0.5,1.3
	c-0.5,0.4-1.3,0.2-1.9,0.5c-1,0.5-0.6,2.1-0.7,3.2c-0.2,1-0.6,2-1,2.9C610.3,370,610.6,371.9,611.7,373.4z"/>
<path class="st11" d="M781.2,792c-0.9-1-2.5-0.8-3.8-0.6c-7.1,1.1-14.3,1.7-21.5,1.7c-0.9-4.4,1.7-8.7,2.5-13.1
	c0.1-1.1,0.4-2.2,0.8-3.3c1-1.9,3.3-2.8,5.4-3.3c3.9-0.8,9.9-2.2,12.1,1.7C779.4,779.9,780.2,786.8,781.2,792z"/>
<path class="st12" d="M702.6,775.4c2.9,2,6.5,2.6,10,3.1s7.1,0.8,10.3,2.3c2.7,1.3,5,3.6,8,4.5c2.7,0.7,5.5,0.8,8.2,0.1
	c3.3-0.6,6.7-1.8,8.5-4.6c1.6-2.5,1.4-5.7,1.2-8.6c-0.2-3.3-0.5-6.7-0.7-10c0-0.8-0.2-1.7-0.6-2.4c-2.3-3.4-8.1,1.4-11.2,1.4
	c-4.9,0-10.1-2.6-13.6-5.9c-0.3-0.3-0.7-0.6-1.1-0.8c-1.4-0.6-2.8,0.5-4,1.5l-0.4,0.3c-2.8,2.2-6.7,2.7-10.2,3.6s-7.3,2.7-8.3,6.2
	c-0.1,0.2-0.1,0.4-0.2,0.7C697.9,770.2,699.9,773.6,702.6,775.4z"/>
<path class="st13" d="M702.6,775.4c2.9,2,6.5,2.6,10,3.1s7.1,0.8,10.3,2.3c2.7,1.3,5,3.6,8,4.5c2.7,0.7,5.5,0.8,8.2,0.1
	c3.3-0.6,6.7-1.8,8.5-4.6c1.6-2.5,1.4-5.7,1.2-8.6c-0.2-3.3-0.5-6.7-0.7-10c0-0.8-0.2-1.7-0.6-2.4c-2.3-3.4-8.1,1.4-11.2,1.4
	c-4.9,0-10.1-2.6-13.6-5.9c-0.3-0.3-0.7-0.6-1.1-0.8c-1.4-0.6-2.8,0.5-4,1.5l-0.4,0.3c-2.8,2.2-6.7,2.7-10.2,3.6s-7.3,2.7-8.3,6.2
	c-0.1,0.2-0.1,0.4-0.2,0.7C697.9,770.2,699.9,773.6,702.6,775.4z"/>
<path class="st14" d="M702.6,776.6c2.9,2,6.5,2.6,10,3.1s7.1,0.8,10.3,2.3c2.7,1.3,5,3.6,8,4.5c2.7,0.7,5.5,0.8,8.2,0.1
	c3.5-0.7,6.5-2.8,8.5-5.7c1.6-2.5,1.4-5.7,1.2-8.6c-0.2-3.3-0.5-6.7-0.7-10c0-0.8-0.2-1.7-0.6-2.4c-2.3-3.4-8.1,1.4-11.2,1.4
	c-4.9,0-10.1-2.6-13.6-5.9c-0.3-0.3-0.7-0.6-1.1-0.8c-1.4-0.6-2.8,0.5-4,1.5c0.8,2.5,2,4.8,3.4,7c2.4,3.7,6.3,6.2,10.7,6.7
	c2.2,0.2,4.4-0.3,6.5,0.3s4,2.7,3.3,4.8s-3.3,2.4-5.4,2.5c-3,0.2-6,0.3-8.8-0.6c-1.7-0.6-3.3-1.5-5-2.2c-7.1-3-16.1-1.3-22-6.3
	c-0.6-0.5-1.2-1-1.8-1.4C697,770.2,699.9,774.7,702.6,776.6z"/>
<path class="st13" d="M702.6,776.6c2.9,2,6.5,2.6,10,3.1s7.1,0.8,10.3,2.3c2.7,1.3,5,3.6,8,4.5c2.7,0.7,5.5,0.8,8.2,0.1
	c3.5-0.7,6.5-2.8,8.5-5.7c1.6-2.5,1.4-5.7,1.2-8.6c-0.2-3.3-0.5-6.7-0.7-10c0-0.8-0.2-1.7-0.6-2.4c-2.3-3.4-8.1,1.4-11.2,1.4
	c-4.9,0-10.1-2.6-13.6-5.9c-0.3-0.3-0.7-0.6-1.1-0.8c-1.4-0.6-2.8,0.5-4,1.5c0.8,2.5,2,4.8,3.4,7c2.4,3.7,6.3,6.2,10.7,6.7
	c2.2,0.2,4.4-0.3,6.5,0.3s4,2.7,3.3,4.8s-3.3,2.4-5.4,2.5c-3,0.2-6,0.3-8.8-0.6c-1.7-0.6-3.3-1.5-5-2.2c-7.1-3-16.1-1.3-22-6.3
	c-0.6-0.5-1.2-1-1.8-1.4C697,770.2,699.9,774.7,702.6,776.6z"/>
<path class="st15" d="M779.8,558.7c2.3,11.1,0.1,22.7-6,32.3c-1.7,2.6-3.6,5-4.9,7.8c-0.8,2-1.5,4.1-1.9,6.2l-5.4,22.4
	c-1.5,6-2.9,12.2-2.5,18.4c0.3,4.3,1.4,9.2-1.3,12.6c-0.6,0.6-1.2,1.4-1.6,2.2c-0.3,1-0.3,2,0,2.9c2.7,16.2,4.8,33.2-0.2,48.9
	c-4.5,14.2-4.7,30-8.5,44.5c-0.5,1.8-1,3.7-2.4,4.9c-1,0.9-2.2,1.4-3.5,1.7c-5.6,1.3-11.5-0.2-16.8-2.7c-3.7-1.7-7.6-4.7-7.3-8.7
	c0.2-1.9,1.3-3.6,2-5.4c1.5-3.5,1.6-7.3,2-11.1c1-9.4,3.9-18.5,6.1-27.8s3.7-18.9,1.8-28.2c-3.8-19.3-9.9-38-18.2-55.8
	c-0.4-0.9-0.9-1.8-1.7-2.5c-0.8-0.5-1.6-1-2.3-1.6c-0.6-0.9-0.9-1.9-1.1-2.9c-0.8-2.9-3.2-5.1-4.9-7.7c-4.1-6.5-2.8-14.9-2.7-22.6
	c0.2-7.5-0.9-15.1,0.3-22.5s5.5-15,12.6-17.3c3.5-1.2,7.4-0.9,11.1-0.5C742.4,548.1,761.5,551.6,779.8,558.7z"/>
<path class="st13" d="M779.8,558.7c2.3,11.1,0.1,22.7-6,32.3c-1.7,2.6-3.6,5-4.9,7.8c-0.8,2-1.5,4.1-1.9,6.2l-5.4,22.4
	c-1.5,6-2.9,12.2-2.5,18.4c0.3,4.3,1.4,9.2-1.3,12.6c-0.6,0.6-1.2,1.4-1.6,2.2c-0.3,1-0.3,2,0,2.9c2.7,16.2,4.8,33.2-0.2,48.9
	c-4.5,14.2-4.7,30-8.5,44.5c-0.5,1.8-1,3.7-2.4,4.9c-1,0.9-2.2,1.4-3.5,1.7c-5.6,1.3-11.5-0.2-16.8-2.7c-3.7-1.7-7.6-4.7-7.3-8.7
	c0.2-1.9,1.3-3.6,2-5.4c1.5-3.5,1.6-7.3,2-11.1c1-9.4,3.9-18.5,6.1-27.8s3.7-18.9,1.8-28.2c-3.8-19.3-9.9-38-18.2-55.8
	c-0.4-0.9-0.9-1.8-1.7-2.5c-0.8-0.5-1.6-1-2.3-1.6c-0.6-0.9-0.9-1.9-1.1-2.9c-0.8-2.9-3.2-5.1-4.9-7.7c-4.1-6.5-2.8-14.9-2.7-22.6
	c0.2-7.5-0.9-15.1,0.3-22.5s5.5-15,12.6-17.3c3.5-1.2,7.4-0.9,11.1-0.5C742.4,548.1,761.5,551.6,779.8,558.7z"/>
<path class="st15" d="M700,605.8c0.1,2.9,0.4,5.8,1,8.7c3.5,19.4,7.1,38.7,11,58c0.3,1.7,0.7,3.3,1.1,5c1.5,5.4,4,10.4,7.5,14.7
	c16.3,20.3,17.7,49.8,26.5,74.3c0.6,1.7,1.2,3.3,1.8,5c1.6,4.2,3.4,8.2,5.5,12.2c0.2,0.6,0.6,1.1,1.1,1.5c0.5,0.3,1.2,0.4,1.8,0.3
	c8,0,15.8-1.7,23-5.2c1-0.4,1.9-1.1,2.4-2c0.3-0.7,0.4-1.6,0.3-2.3c-0.2-4.8-0.5-9.9-2.9-14.2c-1.5-2.6-3.4-4.9-5.7-6.9
	c-0.7-15.2-2.2-30.5-5.5-45.4c-1.7-7.6-3.8-15.3-8.3-21.7c-3.3-4.8-7.9-9.4-7.4-15.2c0.3-2.5,1.3-5.7-0.7-7.1
	c-0.9-0.7-2.2-0.7-2.8-1.7c-0.2-0.4-0.4-0.9-0.4-1.4c-0.4-3.9-0.2-7.9,0.7-11.8c0.7-2.5,1.3-5.1,1.8-7.7c0.3-2.6-0.2-5.5-1.9-7.4
	c-0.1-5.2,0-10.7-0.1-15.9c-0.2-3,0-6,0.7-8.9c0.4-1.4,1-2.7,1.3-4.1c1.1-5-1.6-11,1.6-15c1.3-1.7,3.4-2.5,5.2-3.7
	c3.5-2.4,5.9-6.2,7.2-10.3c1.1-4.1,1.8-8.3,2-12.6c0.1-0.9,0.1-1.8,0-2.7c-0.1-0.5-0.2-0.9-0.4-1.4c-1-2.3-3.7-3.2-6.1-3.7
	c-15.4-3.7-31.1-5.5-46.9-5.5c-5.8-4-9.1-2.6-11.6,1.7c-1.4,2.6-2.5,5.3-3.3,8.1c-1.1,3.4-1.2,22.5-2.3,26
	C695.9,592,700,601.1,700,605.8z"/>
<path class="st12" d="M805.6,431.6c0.4,3-1,6-1.2,9c-0.1,2.7,0.7,5.2,1.2,7.9c1.9,10.2-1.7,20.5-5.4,30.2c-0.7,1.6-1.1,3.3-1.3,5
	c-0.1,3.2,1.7,6.1,2.2,9.2c1,6.6-3.8,12.8-3.9,19.4c0,3.1,0.9,6.2,0.2,9.1c-0.5,2-1.7,3.7-2.6,5.5c-1.5,3.3-2,7-3.5,10.3
	c-2.7,6-8.4,9.9-13.9,13.5c-3.1-1-6.5-2.3-8.2-5.1c-0.8-1.4-1.2-2.9-1.4-4.5c-1.2-6.8-1.2-13.8-1.1-20.7c-0.1-5.9,0.2-11.9,0.9-17.8
	c1.1-7.5,3.5-14.7,5.3-22.1c2.2-9.3,3.3-18.9,6.8-27.9c3-7.8,7.7-14.9,12.7-21.6c1.9-2.6,3.4-6.2,7-5.7
	C802.5,426,805,428.5,805.6,431.6z"/>
<path class="st13" d="M805.6,431.6c0.4,3-1,6-1.2,9c-0.1,2.7,0.7,5.2,1.2,7.9c1.9,10.2-1.7,20.5-5.4,30.2c-0.7,1.6-1.1,3.3-1.3,5
	c-0.1,3.2,1.7,6.1,2.2,9.2c1,6.6-3.8,12.8-3.9,19.4c0,3.1,0.9,6.2,0.2,9.1c-0.5,2-1.7,3.7-2.6,5.5c-1.5,3.3-2,7-3.5,10.3
	c-2.7,6-8.4,9.9-13.9,13.5c-3.1-1-6.5-2.3-8.2-5.1c-0.8-1.4-1.2-2.9-1.4-4.5c-1.2-6.8-1.2-13.8-1.1-20.7c-0.1-5.9,0.2-11.9,0.9-17.8
	c1.1-7.5,3.5-14.7,5.3-22.1c2.2-9.3,3.3-18.9,6.8-27.9c3-7.8,7.7-14.9,12.7-21.6c1.9-2.6,3.4-6.2,7-5.7
	C802.5,426,805,428.5,805.6,431.6z"/>
<path class="st8" d="M726.1,366c2.4,3.9,4.4,8,6,12.3c2.2,0.5,4.5,0.8,6.8,0.8c8.9,0,15.1-5,20.3-11.4c0.5-2,3.3-4,2.9-5.6
	c-0.4-2.1-2.4-1.7-4.2-1.6c-5.5,0.4-11,1.1-16.4,2.1C740.1,362.9,726.3,366.4,726.1,366z"/>
<circle class="st10" cx="738.8" cy="350" r="28.4"/>
<path class="st8" d="M702.9,553.4c4.9-0.3,9.9-0.1,14.8,0.1c3.1,0,6.2,0.4,9.2,0.9c3.7,0.8,7.2,2.5,10.9,3.6
	c5.9,1.7,12.1,1.8,18.2,2.4c4,0.4,8,1,11.9,1.9c-0.1-0.5-0.2-0.9-0.4-1.4c-1-2.3-3.7-3.2-6.1-3.7c-15.4-3.7-31.1-5.5-46.9-5.5
	C708.7,547.8,705.4,549.2,702.9,553.4z"/>
<path class="st12" d="M722.3,396.4c1.2,1.4,2.9,3,4.7,2.5c0.7-0.2,1.3-0.6,1.8-1c3.3-2.1,7.3-2.6,11.1-3.2c7.8-1.2,15.5-2.9,23-5.2
	c2.2-0.8,4.5-1.3,6.8-1.4c4.8,0,9.1,3.2,12.1,7c3,3.8,5.1,8.2,8.1,12c2.1,2.7,4.6,5.1,6.6,7.9c5,7.1,6,16.3,4.8,24.9
	s-4.7,16.6-8.1,24.6c-1.8,4.6-4,9.1-6.6,13.3c1.1,6.5,0.5,13.9-2.5,19.8c-1,1.9-2.2,3.8-2.6,5.9c-0.1,1.4-0.1,2.9,0.2,4.3l1.5,10.3
	c0.4,3.1,0.9,6.3,1.5,9.4c1,5.7,2.5,11.9-0.2,17c-3.2,6.2,0.2,14.1-0.7,21c-8.9-3.4-18.2-5.7-27.7-6.6c-6.1-0.6-12.3-0.7-18.2-2.4
	c-3.7-1.1-7.2-2.8-10.9-3.6c-3-0.6-6.1-0.9-9.2-0.9c-6.8-0.3-13.7-0.5-20.4,0.5c-0.5,0.1-1.2,0.1-1.5-0.3c-0.1-0.2-0.2-0.5-0.2-0.8
	c-0.1-2.5,0.5-5,1.8-7.2c0.8-1.5,2-3,2-4.7c-0.1-0.8-0.3-1.6-0.6-2.4l-3-8c-2.5-6.7-1.3-14.5-2.6-21.6c-1-5.5-1.7-11.1-2-16.7
	c-0.2-4.8-0.1-10,2.8-13.8c0.8-0.9,1.6-1.9,2.2-3c0.4-1.2,0.6-2.4,0.5-3.6c0.1-9.6-0.2-19.2-0.8-28.7c2.5-4.5,5.2-9.2,7.7-13.7
	c2.9-5.3,5.9-10.6,7.1-16.5c0.8-3.9,0.8-8,1.3-11.9c0.1-1,0.4-2,1-2.8c1-1.1,2.6-1.2,4-1.2C718.7,395.5,720.5,395.8,722.3,396.4z"/>
<path class="st8" d="M618.3,379.4c1.8,1.4,3.9,2.2,6.2,2.5c2.9,0.2,9.1-1.5,11-4c0.8-1.3,1.1-2.7,1-4.2c-0.4-0.1-0.8-0.2-1.2-0.2
	c-3.2-0.4-6.4-0.2-9.5,0.4C622.7,374.6,619.7,376.5,618.3,379.4C618.3,379.4,618.3,379.4,618.3,379.4z"/>
<path class="st12" d="M712.8,440.8c-1.7,2.2-3.5,4.4-6,5.7c-2.8,1.5-6.1,1.5-9.3,1.4c-13.1-0.3-26.2-1.7-39-4.3
	c-1.5-0.3-2.9-0.6-4.3-1.1c-1.5-0.7-3-1.6-4.3-2.7c-4.2-3-8.5-6.1-11.7-10.2c-3.8-4.9-6.2-10.8-7-17c-3-2.8-4.7-6.8-6.2-10.7
	c-0.8-1.6-1.2-3.4-1.4-5.2c-0.1-1.8,1.1-3.8,0.8-5.6c-0.6-3.1-2.2-6-4.5-8.1c-0.5-0.4-0.9-0.9-1.1-1.4c-0.1-0.5,0-1,0.3-1.4
	c1.3-2.9,4.3-4.8,7.4-5.6c3.1-0.6,6.4-0.7,9.5-0.4c1.1,0.2,2.1,0.5,3.1,0.8l2.2,5.9c0.3,1,0.8,1.9,1.5,2.7c0.5,0.4,1,0.9,1.6,1.2
	c2.3,1.9,3.5,4.9,3.1,7.9c4.2,1.6,6.4,6.2,5,10.5c3.4,0.7,6.2,3.2,7.3,6.4c0.2,0.7,0.5,1.4,1,2c0.7,0.6,1.6,0.8,2.6,0.8
	c2.5,0.1,4.7,2.1,7,1.1c2.6-1.2,5.5-1.6,8.3-1.2c0.6,0.1,1.2,0.2,1.8,0.2c0.5-0.1,1-0.3,1.5-0.5c1-0.6,2.1-1,3.3-1.3
	c1.2-0.2,2.4,0.2,3.1,1.2c0.8-0.9,1.3-2,2-2.9c0.7-1,1.8-1.6,3-1.5c-0.8-0.7,0-2,1-2.3c1-0.1,2,0,3,0.1c2.6,0,4.6-2.4,7.2-3
	c2.3-0.6,5.5,0.1,6.7-2c0.4-0.7,0.5-1.7,1.2-2.2c0.5-0.2,1.1-0.3,1.6-0.2c1.7,0.2,3.3,0.7,4.8,1.5c2.5,9.6,1.2,19.6-0.7,29.4
	C717.3,433.1,715.6,437.3,712.8,440.8z"/>
<path class="st8" d="M712.9,475.3l12.2,24.7c-1.3-2.3-4.1-3.2-6.3-4.6c-2.8-2-4.9-4.8-6-8.1c-1.1-3.2-1.9-6.6-2.3-10
	c-0.2-1.6-0.8-3.8,0-5.2C711.8,472.3,712.3,474.1,712.9,475.3z"/>
<path class="st8" d="M748.1,496.2c2.8,2.7,6.1,4.7,9.2,7.2c7.1,5.7,12.2,13.4,17.1,21c1.4,2,2.6,4.1,3.5,6.4c-0.6,0.5-1.5,0-2-0.5
	l-9.6-8.4c-1.2-1-2.3-2-3.2-3.2c-1.7-2.2-2.4-5-3.9-7.4c-1.6-2.3-3.6-4.3-5.8-6c-2.2-1.9-12.3-10.5-9.9-13.8
	C745.1,492.3,746.6,494.8,748.1,496.2z"/>
<path class="st12" d="M727.1,389.3c3-1.9,6.6-2.7,10.2-3.4c2.1-0.5,4.3-0.6,6.5-0.5c2,0.2,3.9,1,5.9,1.1c2.8,0.2,5.5-1,8.3-1.7
	c2.7-0.7,5.9-1,8.2,0.6c0.5,0.5,1.1,0.8,1.8,1c0.7-0.1,1.3-0.4,1.8-0.9c4-2.8,9.4-2.5,13,0.7c5.2,4.9,4.6,14.4,10.7,18.1
	c1.7,1,3.8,1.6,4.8,3.3c0.2,0.5,0.5,1.1,0.8,1.6c0.4,0.4,0.9,0.8,1.5,1c1.8,0.8,3.4,1.8,5,2.9c1.6,1.2,2.6,2.9,2.9,4.9
	c0,1.4-0.3,2.8-0.9,4.1c-6.1,15-21,24.5-37.2,23.8c-1.4,0.1-2.8-0.4-3.9-1.2c-0.6-0.7-1.1-1.4-1.4-2.2c-2.9-6-8.2-10.5-11.7-16.2
	c-2-3.4-3.3-7.2-5.5-10.6c-3.2-5.1-8.1-8.9-12.9-12.5c-2.7-2.1-5.7-4.2-9.1-4.1c-3,0.1-5.2,0.3-4.1-3.4
	C722.7,393,724.6,390.7,727.1,389.3z"/>
<path class="st13" d="M727.1,389.3c3-1.9,6.6-2.7,10.2-3.4c2.1-0.5,4.3-0.6,6.5-0.5c2,0.2,3.9,1,5.9,1.1c2.8,0.2,5.5-1,8.3-1.7
	c2.7-0.7,5.9-1,8.2,0.6c0.5,0.5,1.1,0.8,1.8,1c0.7-0.1,1.3-0.4,1.8-0.9c4-2.8,9.4-2.5,13,0.7c5.2,4.9,4.6,14.4,10.7,18.1
	c1.7,1,3.8,1.6,4.8,3.3c0.2,0.5,0.5,1.1,0.8,1.6c0.4,0.4,0.9,0.8,1.5,1c1.8,0.8,3.4,1.8,5,2.9c1.6,1.2,2.6,2.9,2.9,4.9
	c0,1.4-0.3,2.8-0.9,4.1c-6.1,15-21,24.5-37.2,23.8c-1.4,0.1-2.8-0.4-3.9-1.2c-0.6-0.7-1.1-1.4-1.4-2.2c-2.9-6-8.2-10.5-11.7-16.2
	c-2-3.4-3.3-7.2-5.5-10.6c-3.2-5.1-8.1-8.9-12.9-12.5c-2.7-2.1-5.7-4.2-9.1-4.1c-3,0.1-5.2,0.3-4.1-3.4
	C722.7,393,724.6,390.7,727.1,389.3z"/>
<path class="st12" d="M712.3,800.9c2.1,1.9,4.9,2.8,7.6,3.4c6.3,1.2,12.6,2,19,2.3l6.2,0.5c6,0.5,12.1,0.9,18.2,1
	c7.5,0,15-0.6,22.4-1.9c0.7,0,1.3-0.3,1.8-0.9c0.2-0.4,0.3-0.9,0.3-1.4c-0.1-7.6-1.1-15.1-2.8-22.4c-0.7-3-6.1,3.8-6.4,4
	c-1.5,1.7-2.6,2.5-4.9,2.6c-6.2,0.3-13.2-3.5-18.2-6.8c-1.1-0.8-2.2-1.5-3.4-2.1c-0.9-0.4-1.8-0.6-2.7-0.8c-3.2-0.3-6.4,0.4-9.3,1.9
	c-3.7,1.8-7,4.5-10.7,6.4c-3,1.5-6.2,2.5-9.6,3c-3.4,0.5-7.4,0.7-9.2,3.6l0,0C709.2,795.8,710.2,799,712.3,800.9z"/>
<path class="st14" d="M712.3,802.1c2.1,1.9,4.9,2.8,7.6,3.3c6.3,1.2,12.6,2,19,2.3l6.2,0.5c6,0.5,12.1,0.9,18.2,1
	c7.5,0,15-0.6,22.4-1.9c0.7,0,1.3-0.3,1.8-0.9c0.6-0.8,1.1-1.6,1.4-2.5c-0.1-7.6-2.2-15.1-3.9-22.5c-0.7-3-6.1,3.8-6.4,4
	c-1.5,1.7-2.6,2.5-4.9,2.6c-6.2,0.3-13.2-3.5-18.2-6.8c-1.1-0.8-2.2-1.5-3.4-2.1c-0.9-0.4-1.8-0.6-2.7-0.8
	c0.8,4.5,7.2,9.9,10.6,11.6c6.7,3.3,14.7,1.7,22.2,2.1c0.5,0,1.1,0.1,1.6,0.4c0.9,0.6,1,1.9,0.9,3c-0.1,1.8-0.3,3.9-1.8,4.8
	c-0.8,0.4-1.6,0.5-2.5,0.5c-18.5,0.8-37,0.1-55.5-2c-3.1-0.2-6.1-0.9-9-2c-1.9-0.9-3.6-2-5.2-3.4
	C708.3,795.2,710.2,800.1,712.3,802.1z"/>
<path class="st12" d="M727.8,349.7c0.1,2.9-1.9,8.6,3.6,7c3.3-1,4.2-4.8,8.3-4s5.1,6,6.5,9.3c2.3,5.4,7.2,9.3,12.9,10.5
	c1.2,0.3,2.4,0.3,3.6,0c2.7-0.8,4.2-3.5,5.3-6.1c1-2.2,1.7-4.4,2.3-6.7c0.4-1.6,0.7-3.3,0.8-4.9l0,0c0.1-1.1,0.1-2.3,0-3.4
	c-0.5-6.7-4.3-12.8-9.2-17.4c-4.9-4.6-10.8-7.9-16.6-11.2c-1.9-1.2-4-2.1-6.1-2.7c-2.1-0.4-4.3-0.5-6.5-0.3
	c-2.8,0.1-5.6,0.8-8.2,1.9c-1.1,0.5-2,1.2-2.9,2c-1.2,1.1-2.1,2.6-2.5,4.2c-1,4.3,1.7,8.2,3.9,11.6
	C725.2,342.7,727.6,345.9,727.8,349.7z"/>
<path class="st8" d="M635.3,412.7c1.2-3,6.1-11.1,4.7-14c-1.5,2.1-2.7,4.4-3.8,6.7C635.3,407.7,636.1,410.8,635.3,412.7z"/>
<path class="st8" d="M723,339.6c-2.2-3.4-5-7.3-3.9-11.6c0.5-1.9,1.6-3.6,3.2-4.8c-0.4,0.6-0.6,1.3-0.8,2c-1.1,4.3,1.7,8.2,3.9,11.6
	c2,3,4.5,6.2,4.6,10c0.1,2.9-1.9,8.6,3.6,7c3.3-1,4.2-4.8,8.3-4c4.2,0.8,5.1,6,6.5,9.3c2.3,5.4,7.2,9.3,12.9,10.5
	c1.2,0.3,2.4,0.3,3.6,0c0.6-0.2,1.2-0.4,1.7-0.8c-0.8,1.7-2.3,3-4.1,3.6c-1.2,0.3-2.4,0.3-3.6,0c-5.8-1.1-10.6-5.1-13-10.5
	c-1.4-3.4-2.3-8.5-6.5-9.3c-4.2-0.9-5.1,3-8.3,4c-5.5,1.6-3.5-4.1-3.6-7C727.5,345.9,725,342.7,723,339.6z"/>
<path class="st8" d="M721.8,333.8c0.5,0.8,1.1,1.6,1.7,2.4c1.2,1.5,2.5,2.8,3.9,4c0.8,0.7,1.7,1.4,2.6,2.1c1.7,1.2,3.5,2.2,5.3,3.2
	c5.4,2.7,11.2,4.4,17,6.1l11.3,3.3c1.4,1,3.9,3,6.8,4.9c0.4-1.6,0.7-3.3,0.8-4.9l0,0c0.1-1.1,0.1-2.3,0-3.4
	c-0.5-6.7-4.3-12.8-9.2-17.4c-4.9-4.6-10.8-7.9-16.6-11.2c-1.9-1.2-4-2.1-6.1-2.7c-2.1-0.4-4.3-0.5-6.5-0.3
	c-2.8,0.1-5.6,0.8-8.2,1.9c-1.1,0.5-2,1.2-2.9,2c-0.6,0.9-1.1,2-1.5,3.1C719.6,329.2,720.5,331.7,721.8,333.8z"/>
<path class="st16" d="M721.8,333c0.5,0.8,1.1,1.6,1.7,2.4c1.2,1.5,2.5,2.8,3.9,4c0.8,0.7,1.7,1.4,2.6,2.1c1.7,1.2,3.5,2.2,5.3,3.2
	c5.4,2.7,11.2,4.4,17,6.1l11.3,3.3c4,3,17.2,12.8,19.4,11.6c2.6-1.4-11.8-11.6-11.8-11.6l-0.7,0.5c2.1-1.3,3.2-4.4,3.7-7
	c0.8-4.8,1.2-9.7,0.1-14.4s-4-9.2-8.2-11.4c-1.9-1-4.2-1.6-5.6-3.1c-0.2-0.2-0.4-0.5-0.5-0.7c-0.1-0.1-0.2-0.3-0.2-0.4
	c-0.1-0.4-0.4-0.8-0.6-1.2c-0.8-0.9-2.2-0.6-3.4-0.5c-0.1,0-0.2,0-0.4,0c-0.2,0-0.4,0-0.7,0c-4.3,0.1-8.4-2.3-12.7-2.3
	c-4.7,0-8.8,2.7-12.9,4.6c-0.8,0.4-1.6,0.7-2.4,1.1c-3,1.4-5.3,2.9-6.5,6.9C719.6,328.5,720.5,331,721.8,333z"/>
<path class="st8" d="M754.8,315.9c-0.2,0.3-0.3,0.7-0.3,1c0,0.6,0.3,1.1,0.7,1.5c0.5,0.4,1.1,0.6,1.8,0.6c0.5,0.1,0.9,0.1,1.4,0.1
	c0.6,0.1,1.3-0.1,1.8-0.3c0.1-0.1,0.2-0.1,0.3-0.2c-0.2-0.2-0.4-0.5-0.5-0.7c-0.1,0.1-0.2,0.1-0.6,0c-0.8,0-1.6-0.2-2.3-0.4
	c-0.3-0.1-0.6-0.2-0.9-0.4c-0.4-0.3-0.7-0.8-0.8-1.2L754.8,315.9z"/>
<path class="st8" d="M771,353.9c-0.6,0.4-1.3,0.6-2,0.7c-0.5,0.1-1,0.2-1.5,0.2c-1.3,0-2.6-0.4-3.7-1"/>
<rect x="201.3" y="341" class="st17" width="51.7" height="25.4"/>
<rect x="201.3" y="412.2" class="st17" width="51.7" height="25.4"/>
<rect x="201.3" y="483.5" class="st17" width="51.7" height="25.4"/>
<rect x="201.3" y="554.7" class="st17" width="51.7" height="25.4"/>
<linearGradient id="SVGID_2_" gradientUnits="userSpaceOnUse" x1="178.91" y1="224.9054" x2="396.0833" y2="224.9054" gradientTransform="matrix(1 0 0 -1 -35 773.42)">
	<stop  offset="0" style="stop-color:#808080;stop-opacity:0.25"/>
	<stop  offset="0.54" style="stop-color:#808080;stop-opacity:0.12"/>
	<stop  offset="1" style="stop-color:#808080;stop-opacity:0.1"/>
</linearGradient>
<path class="st18" d="M358.4,404.6c1.4-0.9,0.9-3.4-0.6-4.2c-1.5-0.8-3.3-0.6-5-0.2c0.2-0.9-0.3-1.8-1.1-2.1v-0.4
	c1-0.9,0.6-2.9-0.6-3.8c-1.2-0.8-3-0.9-4.7-0.8c0.2-2-0.5-3.9-2-5.3c-0.3-0.3-0.7-0.5-1.1-0.5c-0.9,0-1.2,1.2-1.3,2.2
	c-0.2,2.4-0.6,4.8-1.2,7.2l-30.3,50.8c-3.4,4.9,7.1-9.7,3.7-4.8c-1.7,2.7-3.7,5.2-6,7.4c-2,1.8-4.3,3.3-6.8,4.5
	c-1.6,0.1-3.2-0.4-4.6-1.3c-1.7-1.2-3.2-2.7-4.4-4.4c-2.6-3.4-5-6.9-7.1-10.6c-0.7-1.2-1.3-2.5-1.6-3.8c-0.5-2.1,0-4.4-0.8-6.4
	c-0.3-0.7-0.8-1.4-1.3-2.1l-2.1-2.8c0,0,0-0.1,0-0.1c-0.2-4.1-3.6-7.3-6.7-10c-2.7-2.3-5.5-4.7-9-5.2c-1.9-0.2-3.8,0.1-5.7-0.1
	c-1.5-0.2-3-0.8-4.5-1c-1.5-0.2-2.9-0.2-4.4-0.1l-0.6-0.6c3.2-1.4,6-3.7,7.9-6.6c1.5-2.3,2.2-5,3.6-7.4c1.6-2.9,4-5.3,5.9-8.2
	c4.4-6.7,5.2-15.2,3.4-23s-5.9-14.8-10.8-21.1c-9.4-12.1-25.1-16.6-39.9-14.2c-1,0.1-2,0.3-2.9,0.5c-2.5,0.5-4.9,1.3-7.2,2.3
	c-3.2,1.3-5.9,3.4-7.9,6.2c-0.6,0.8-1,1.7-1.4,2.6c-0.3,0.7-0.5,1.4-0.7,2.1c-0.5,2.2-0.6,4.4-0.4,6.6c0.1,0.8,0.1,1.5,0.2,2.3
	c0,0.4,0.1,0.8,0.1,1.1c0.1,0.8,0.2,1.5,0.3,2.3c0.2,1.1,0.3,2.3,0.4,3.4c0.1,0.8,0.1,1.6,0.1,2.4c0,0.2,0,0.4,0,0.6
	c0,0.6-0.1,1.2-0.3,1.8c-0.1,0.3-0.2,0.6-0.3,0.9c-0.4,0.9-0.8,1.8-1.4,2.5c-0.8,1-1.6,2-2.5,3l-0.9,1l-0.8,1
	c-1.1,1.3-2.1,2.7-3.1,4.1c-0.5,0.7-0.9,1.5-1.2,2.3c-0.3,0.6-0.5,1.2-0.7,1.8c-0.3,0.8-0.4,1.7-0.5,2.5c0,0.2-0.1,0.4-0.1,0.7
	c0,0.4,0,0.9,0,1.3c0,0.4,0.1,0.8,0.1,1.3c0.1,0.8,0.4,1.7,0.7,2.4c0,0.1,0.1,0.2,0.2,0.3c0.1,0.1,0.1,0.2,0.2,0.3
	c0.1,0.1,0.2,0.4,0.3,0.6c0.1,0.3,0.3,0.7,0.3,1c0,0.1,0,0.2,0,0.4c0,0.1,0,0.2,0,0.4c-0.2,1-0.7,1.9-1.4,2.5
	c-0.2,0.2-0.4,0.3-0.6,0.5l-0.3,0.2l-0.6,0.5l-0.6,0.5c-0.5,0.4-1,0.9-1.5,1.5c-5.5-0.3-11,0.2-16.3,1.6c-1.9,0.6-3.9,1-5.9,1.1
	c-1,0.1-1.9-0.3-2.5-1.1c-0.3-0.7-0.4-1.5-0.3-2.3c0.3-3.3-0.3-6.6-1.6-9.6c-0.3-0.9-0.9-1.7-1.6-2.3c-0.7-0.6-1.8-0.7-2.6-0.1
	c1.6,5.3,1.4,11.1-0.7,16.3c-1.1,2.4-2.3,4.8-3.8,7.1c-2.2,3.8-3.5,8.1-5.5,12.1c2.2,7.5,1.7,15.5,2.9,23.3c1.1,7.2,3.6,14.1,6.1,21
	c1.9,5.2,4,10.5,8.1,14.2c1.3,1.3,3.1,2.1,5,2.2c1.4-0.2,2.8-0.7,3.9-1.5c1.2-0.7,2.3-1.5,3.3-2.4c0.4-0.4,0.7-0.8,1-1.3
	c0.1,0.7,0.4,1.3,0.7,1.8c2.4-5.1,5-10.1,7.8-15.1c0.8-0.4,1.6-1,2.3-1.6c0.1,0.2,0.1,0.3,0.1,0.5c-0.1,0.5-0.2,1-0.4,1.4
	c-0.1,0.5-0.3,0.9-0.4,1.3s-0.2,0.7-0.3,1c-0.1,0.3-0.3,0.8-0.4,1.2l-0.5,1.3c-0.1,0.3-0.2,0.6-0.4,0.9c-0.3,0.7-0.6,1.5-0.9,2.2
	c0.3,0.1,0.5,0.2,0.8,0.3l0.2,0.1c0.3,0.1,0.5,0.1,0.8,0.2h0.3l0.6,0.1h0.2c0.1,0,0.2,0,0.3,0h0.4c0.7,0,1.4-0.2,2.1-0.4
	c0.1,0.5,0.2,1,0.4,1.6c1,3.5,1.6,7.1,1.9,10.7c0.2,4.1-0.5,8.3,0.2,12.3c0.4,2.1,1.2,4.1,1.5,6.2c0.2,2,0.2,4-0.1,6
	c-0.5,4.8-0.9,9.6-1.4,14.4c0,1.8-0.5,3.5-1.2,5.1c-0.7,1.2-1.8,2.5-1.1,3.7c1.1-0.3,2.3-0.5,3.4-0.7c-0.4,1.5-0.8,3.1-1.2,4.6
	c-0.4,1.1-0.4,2.4-0.3,3.5c0.2,1.1,0.9,2.1,1,3.2c0.2,1.8-1,3.3-1.7,4.9c-1.7,4.2,0.1,8.8,1.9,13l5.4,12.2c1.5,3.3,2.9,6.7,4.4,10
	c1.3,3,2.6,6,3.9,9c5.8,13.7,10.5,27.8,14.1,42.2c0.1,0.7,0.4,1.3,0.7,1.8c0.8,1,2.1,1.3,3.2,1.9c3.3,1.8,3.7,7.3,0.7,9.5
	c0.6,7.3-4.9,14.4-7.7,21.2c-6.5,15.6-5.3,33.2-7.6,50l2.5-1.5c0.3,0.1,0.6,0.3,0.8,0.5c-0.1,0.3-0.1,0.6-0.2,0.9
	c-0.3,1.4-0.9,2.8-1.6,4.1c-1.5,2.5-3.7,4.8-4.1,7.7c-0.2,1.8,0.3,3.5,0.3,5.3c0,0.2,0,0.3,0,0.5c-0.2-0.2-0.6-0.2-1.1,0.2
	c-0.8,0.8-1.3,1.9-1.6,3c-0.4,1.2-0.8,2.5-1.1,3.8l-1.2,4.5c-0.7,2.7-1.5,5.4-2.6,7.9c-0.9,1.7-1.7,3.5-2.3,5.4
	c-0.4,1.5-0.5,3.1-0.4,4.6c0,1.5,0.2,3,0.6,4.4c1.2,2.8,3.5,5,6.4,6.1c2.9,1,5.9,1.6,8.9,1.7c0.8,0.1,1.6,0.1,2.3-0.1
	c0.8-0.2,1.6-0.6,2.3-1.2c4.1-3,6.2-8.6,6.6-13.7c-0.1-1-0.3-2.1-0.6-3.1c0.2-5.5-0.6-11.1-0.1-16.7c0.1,0.6,0.2,1.2,0.3,1.9
	c0.3,2.1,0.7,4.1,1,6.2c-0.1-0.2-0.2-0.4-0.3-0.6c-0.7,2.3-0.8,4.8-0.4,7.1c0.5,2.4,1.1,4.7,2,6.9l1.3,3.7c0.3,1.1,0.9,2.2,1.6,3.1
	c1.2,1.3,3,1.8,4.6,2.2c3.6,1.1,7.4,1.7,11.2,1.9c0.5,0.1,1,0,1.5-0.3c0.2-0.2,0.4-0.4,0.7-0.6c0.3-0.2,0.7-0.5,1.1-0.6
	c1.6-0.9,2.9-2.3,3.4-4.1c0.6-1.8,0.3-3.7-0.6-5.3c-0.4-0.7-1-1.3-1.5-1.8l-6.7-7.1c-1-1.2-2.1-2.4-3.3-3.5
	c-0.3-0.3-0.7-0.4-1.1-0.4c-1.8-4.5-1.6-9.8-1.3-14.8c0.1-1.5,0.9-4.6,1.2-7.1c1.3-0.4,2.5-1.1,3.5-1.9c1-0.7,1.7-1.8,2-3
	c3.4-17.2,8.8-33.9,13.9-50.6c0.5-1.7,1-3.3,1.5-5l0.6-2.1c0.2-0.6,0.3-1.2,0.5-1.7c0.3-1,0.5-2,0.8-2.9c0.1-0.3,0.1-0.5,0.2-0.8
	c0-0.1,0-0.1,0-0.2c0.3-1.2,0.6-2.4,1-3.6l0.4-1.4c0.4-1.5,0.8-3.1,1.1-4.6c0-0.2,0.1-0.4,0.1-0.7c0.1-0.5,0.1-1.1-0.1-1.6l0,0l0,0
	c-0.1-0.2-0.2-0.4-0.4-0.6c-0.1-0.1-0.2-0.2-0.3-0.4l-0.4-0.4c-0.3-0.4-0.5-0.8-0.7-1.3c0-0.5,0-0.9,0-1.4s-0.1-1-0.1-1.5
	c0.1-0.7,0.3-1.3,0.4-1.9c0.1-0.4,0.2-0.8,0.4-1.1s0.3-1,0.5-1.4c0.6-0.7,0.9-1.5,0.9-2.4c0.6-1.5,1.3-3,2-4.4
	c0.9-1.5,1.5-3.1,1.8-4.8c0-1.5-0.2-3.1-0.6-4.6c-1-6.3,1.9-12.5,4.1-18.6c1.6-4.4,2.8-9,3.6-13.6c0.6-3.6,1.1-7.3,3-10.4
	c0.6-0.9,1.2-1.8,1.6-2.8c0.3-1,0.4-2.1,0.4-3.2c0.2-4.3,1.3-8.5,3.1-12.5c0.4-0.8,0.7-1.6,0.8-2.4c0-0.1,0-0.1,0-0.2v-0.2l0.5-0.1
	c0.9-5.4,1.7-11.4,1.1-16.8c-0.8-6.3-3.8-12-8.6-16.2h0.1c1.7-0.8,2.4-2.9,2.5-4.8c0-2.8-1.3-5.5-3.5-7.3c-0.5-0.3-0.9-0.7-1.2-1.2
	c-0.2-0.5-0.2-1-0.1-1.6c0-3.3-2-6.2-5-7.5c-0.3-0.1-0.6-0.2-0.8-0.5c-0.2-0.4-0.3-0.9-0.2-1.4c0.2-3.2-1.4-6.3-4.2-8
	c0.6-2.1,0.6-4.2,0.2-6.3c-0.6-2-2.5-3.9-4.6-3.6c1.7-4.7-0.7-9.9-0.1-14.9c0.3-2.1,1.1-4.2,1.2-6.3c0.1-1.9-0.4-4,0.6-5.7
	s3.2-3,2.6-4.8c-0.2-0.8-1-1.3-1.3-2.1c-0.3-0.8,1-2,1.7-1.5c0.3-0.2,0.7-0.5,1-0.8c0.1,1,0.3,2,0.6,2.9c0.5,1.6,1.2,3.1,1.7,4.7
	c0.8,2.4,1,5.1,2.2,7.3c2,3.6,6.1,5.3,8.9,8.3c1.6,1.7,2.8,3.9,4.5,5.5c1.3,1.2,2.7,2.3,4.2,3.2l9,5.8c0.9,0.7,2,1.2,3.1,1.5
	c2.9,0.5,5.6-1.3,6.2-4.2c0-0.1,0-0.2,0-0.3c-0.8-0.3-1.6-0.8-2.2-1.4c0.1,0,0.3,0,0.4-0.1c2.1-0.6,4.1-1.6,5.8-3.1
	c6.4-5.1,11-12.1,15.5-19c4.7-7.2,27.5-26.2,27.5-26.2v-7.7c2.9-1.7,5.5-3.9,7.6-6.4c1.2-1.4,1.8-3.1,1.9-4.9
	C361.2,407.1,360.1,405.4,358.4,404.6z M169.4,423.1c-0.4,2.8-1,5.6-1.6,8.4c-0.7,3.2-1.6,6.4-2.7,9.4c-0.1,0.3-0.2,0.6-0.4,1
	c-0.3-0.6-0.6-1.2-0.9-1.8c-0.7-1.5-1.3-3.1-1.9-4.7l-3.8-10.1c-0.5-1.3-1-2.8-0.2-4c0.5-0.7,1.3-1.3,2.1-1.6
	c2.6-1.2,5.4-2.1,8.2-2.8c0.9-0.2,1.8-0.4,2.7-0.7C170.2,418.4,169.7,420.7,169.4,423.1z M173.5,410.5c-0.3-0.5-0.3-1,0-1.5
	c0.3-0.3,0.6-0.5,1-0.7c0.1-0.1,0.2-0.1,0.3-0.2L173.5,410.5z M181.3,399.5c-1.1,0.9-2.1,1.9-3,3.1c-1,1.3-1.8,2.6-2.6,4
	c0.3-1.1-0.2-2.3-1.1-3c-0.4-0.2-0.7-0.4-1-0.7c-0.7-0.9-0.5-2.2,0.4-2.9c0.9-0.6,1.9-0.9,3-1l4.5-0.7
	C181.5,398.7,181.4,399.1,181.3,399.5L181.3,399.5z M223.5,726.1c0.1-1.3,0-2.7-0.3-4c0.6,0,1.1,0,1.7,0L223.5,726.1z"/>
<path class="st19" d="M218.9,328.3c-7.8,1.2-16.5,4.3-19.5,11.6c-2.2,5.5-0.5,11.8,0.1,17.7c0.2,1.6,0.2,3.2-0.2,4.7
	c-0.6,2.5-2.4,4.5-4.1,6.5c-2.4,2.5-4.4,5.3-5.9,8.3c-1.4,3.1-1.9,6.9-0.4,10c0.5,0.8,0.8,1.7,1,2.6c0.1,2-2,3.3-3.6,4.6
	c-5.9,4.8-5.6,13.7-5.7,21.3c-0.1,15.6-3.6,30.9-10.2,45c5.1,2.6,11.2,1.8,15.4-2c-0.8,3.5-2,6.9-3.5,10.1c5,2.4,10.9-1.5,13.4-6.5
	s2.8-10.6,4.6-15.9s4.9-9.8,6.2-15c0.4-1.7,0.7-3.6,1.8-5c0.9-1,1.9-1.9,3.1-2.7c5.1-3.7,9-9,11-15c6.1,1.3,12.3,2.7,18.5,2.1
	s12.5-3.4,15.8-8.7c1.5-2.3,2.2-5,3.6-7.4c1.6-2.9,4-5.3,5.9-8.1c4.4-6.7,5.2-15.2,3.4-23c-1.8-7.8-5.9-14.8-10.8-21.1
	C249.4,330.5,233.7,326,218.9,328.3z"/>
<path class="st4" d="M169.6,426c-0.4,2.8-1,5.6-1.6,8.3c-0.7,3.2-1.6,6.3-2.7,9.4c-0.6,1.4-0.9,2.8-0.9,4.3c0.2,0.9,0.5,1.8,1.1,2.6
	c3.6,6.3,8.4,12.5,8.8,19.7c0.1,1.8,0,3.8,1,5.3c2.8-5.9,5.8-11.7,9.1-17.3c3.5-5.9,7.3-11.9,8.3-18.6c0.4-3.2,0.3-6.4-0.1-9.6
	c-0.5-3.6-1.3-7.2-3.4-10.1c-2.4-3.1-8.8-7.7-13-6.8C171.2,414.4,170.2,422,169.6,426z"/>
<path class="st10" d="M295.4,460.1c4.7-1.9,9.4-3.9,13.1-7.3c2.3-2.2,4.3-4.7,6-7.4l11-15.9c2.6-3.8,5.3-7.7,5.8-12.3
	c6.4-6.8,10.3-15.6,11-24.9c0.1-0.9,0.4-2.2,1.3-2.2c0.4,0,0.8,0.2,1.1,0.5c1.5,1.3,2.2,3.3,2,5.3c1.6-0.1,3.4-0.1,4.6,0.8
	s1.6,3.3,0.2,4c1,0.3,1.6,1.3,1.4,2.3c1.7-0.3,3.5-0.6,5,0.2c1.5,0.8,2.1,3.3,0.6,4.2c1.7,0.7,2.8,2.3,2.8,4.2
	c-0.1,1.8-0.8,3.5-1.9,4.9c-4.2,5.7-11.7,7.9-16.5,13c-1.6,1.8-3.1,3.7-4.3,5.8l-14.2,21.5c-4.5,6.8-9.1,13.8-15.5,18.9
	c-1.7,1.5-3.6,2.5-5.8,3.1c-2.2,0.5-4.5-0.1-6.1-1.7c-1.4-1.6-1.6-3.9-1.8-6.1C295,467.5,295.6,463.8,295.4,460.1z"/>
<path class="st19" d="M248,759.4c0.6,0.6,1.1,1.2,1.5,1.8c1,1.6,1.2,3.5,0.6,5.2c-0.6,1.7-1.8,3.2-3.4,4.1c-0.4,0.2-0.7,0.4-1.1,0.6
	c-0.2,0.2-0.4,0.4-0.7,0.6c-0.5,0.2-1,0.3-1.5,0.3c-3.8-0.2-7.5-0.9-11.2-1.9c-1.7-0.4-3.5-0.9-4.6-2.2c-0.7-0.9-1.3-2-1.6-3.1
	l-1.3-3.7c-0.9-2.2-1.5-4.5-2-6.9c-0.5-2.4-0.4-4.8,0.4-7.1c0.3,0.4,0.5,0.9,0.5,1.5c0.4,2.5,1.4,4.9,2.9,6.9
	c0.9,1.6,2.6,2.7,4.4,2.8c2.3,0.5,4.7,0.8,7.1,0.9c0.3,0,0.7,0,1-0.1c0.4-0.2,0.7-0.6,0.8-1c0.3-0.9,0.3-2,0-2.9
	c-0.6-1.8-2.4-3-3.2-4.7c-0.6-1.3,0.2-2.7,1.5-1.6c1.2,1.1,2.3,2.2,3.3,3.5L248,759.4z"/>
<path class="st10" d="M235.7,733.8c-0.4,6-0.6,12.4,2.6,17.4c1.2,1.8,2.7,3.3,4.1,5c0.8,0.8,1.3,1.9,1.5,3c0.2,2.2-1.9,4.1-4,4.5
	s-4.4-0.3-6.5-0.9c-2-0.5-3.8-1.4-5.5-2.6c-2.8-2.4-3.6-6.4-4.2-10.1l-1.3-8.5c-0.4-2-0.6-4.1-0.5-6.2c0.3-2.3,0.8-4.6,1.7-6.7
	l2.2-6.4c0.2-0.6,0.5-1.2,1-1.6c0.5-0.3,1.1-0.4,1.7-0.3c2.1,0.1,7.4,0.9,8.4,3.1C237.7,725.3,235.9,731.5,235.7,733.8z"/>
<path class="st13" d="M235.7,733.8c-0.4,6-0.6,12.4,2.6,17.4c1.2,1.8,2.7,3.3,4.1,5c0.8,0.8,1.3,1.9,1.5,3c0.2,2.2-1.9,4.1-4,4.5
	s-4.4-0.3-6.5-0.9c-2-0.5-3.8-1.4-5.5-2.6c-2.8-2.4-3.6-6.4-4.2-10.1l-1.3-8.5c-0.4-2-0.6-4.1-0.5-6.2c0.3-2.3,0.8-4.6,1.7-6.7
	l2.2-6.4c0.2-0.6,0.5-1.2,1-1.6c0.5-0.3,1.1-0.4,1.7-0.3c2.1,0.1,7.4,0.9,8.4,3.1C237.7,725.3,235.9,731.5,235.7,733.8z"/>
<path class="st20" d="M282.6,557c0,0.1,0,0.1,0,0.2c-0.1,0.8-0.4,1.7-0.8,2.4c-1.8,3.9-2.8,8.1-3.1,12.5c0,1.1-0.1,2.1-0.4,3.1
	c-0.4,1-1,1.9-1.6,2.8c-1.9,3.1-2.3,6.8-3,10.4c-0.8,4.6-2,9.2-3.6,13.6c-2.2,6-5.1,12.2-4.1,18.5c0.4,1.5,0.6,3,0.6,4.5
	c-0.3,1.7-0.9,3.3-1.8,4.8c-0.7,1.4-1.4,2.9-2,4.4s-1.2,3.3-1.7,5c-0.6,2-1,4.5,0.4,6.1c0.4,0.4,0.8,0.9,1.1,1.3
	c0.3,0.7,0.3,1.6,0,2.3c-0.8,3.3-1.6,6.5-2.5,9.7c-0.7,2.5-1.4,5.1-2.1,7.6c-5.5,18.4-11.7,36.7-15.4,55.5c-0.5,2.7-4,4.7-6.7,5.2
	c-2.8,0.6-5.6-0.2-7.7-2.1l-0.5-0.5c-2.8-3-3.2-7.7-3-11.9c1-19.4,10.7-37.2,15.4-56c1.7-6.8,2.7-13.8,3-20.8
	c1.1-23.4,1.5-48.2-5.1-70.7c-1.4-4.7-3-10-0.5-14.2c1.6-2.7,4.5-4.2,7.3-5.4c11.8-4.6,25-4.3,36.6,0.9c0,0.5,0,0.9,0,1.4
	c-0.3,2.2,0,4.4,0.7,6.5C282.3,555.1,282.5,556,282.6,557z"/>
<path class="st15" d="M202.4,739.8l-1.2,4.5c-0.7,2.7-1.5,5.4-2.6,7.9c-0.9,1.7-1.7,3.5-2.3,5.4c-0.3,1.5-0.5,3.1-0.4,4.6
	c0,1.5,0.2,3,0.6,4.4c1.2,2.8,3.5,5,6.4,6.1c2.9,1,5.9,1.6,8.9,1.7c0.8,0.1,1.6,0.1,2.3-0.1c0.8-0.2,1.6-0.6,2.3-1.2
	c4.1-3,6.2-8.6,6.6-13.7c-0.1-1.2-0.3-2.4-0.7-3.5c-0.3-0.4-3.4,1.3-2.1,2.8c2,2.2-3.8,1-6.7,0.9c-1.3-0.1-2.5-0.3-3.8-0.6l-4.8-1
	c-1.6-0.3-3.3-0.9-3.9-2.4s0.6-3.3,1.6-4.7c2.5-3.8,3.1-8.5,3.7-13.1c0.1-0.9,1.2-6.7-1.1-4.9c-0.8,0.8-1.3,1.9-1.6,3
	C203.1,737.2,202.7,738.5,202.4,739.8z"/>
<path class="st13" d="M261.4,645.3c-1.4-1.6-1-4.1-0.4-6.1c0.2-0.8,0.5-1.5,0.7-2.3l-18.6-6.3c-0.1,1.7-0.1,3.3-0.2,5
	c-0.3,7-1.3,14-3,20.8c-4.6,18.9-14.4,36.6-15.4,56c-0.2,4.5,0.3,9.5,3.6,12.5c2.1,1.9,5,2.6,7.7,2.1c2.7-0.6,6.2-2.5,6.7-5.3
	c3.7-18.9,9.9-37.1,15.4-55.5c1.7-5.7,3.3-11.5,4.6-17.3c0.3-0.7,0.3-1.5,0-2.3C262.2,646.1,261.9,645.7,261.4,645.3z"/>
<path class="st10" d="M209.9,719.3c-1.5,2.5-3.7,4.8-4.1,7.7c-0.2,1.8,0.3,3.5,0.3,5.3c-0.1,1.5-0.3,2.9-0.8,4.3
	c-1.8,6.6-3.9,13-6.3,19.4c-0.4,0.8-0.6,1.7-0.5,2.6c0.2,1.5,1.7,2.5,3.1,3.1c4.4,1.9,9.4,1.8,14.2,1.6c1.4,0.1,2.8-0.3,4-0.9
	c1.7-1.2,2.1-3.5,2.3-5.6c0.3-6-0.7-12.1,0-18.1c0.2-2.2,0.7-4.3,1-6.5c0.5-3,0.7-6.2-0.3-9.1c-0.8-2.1-2-4-3.4-5.7
	c-1.3-1.9-2.9-3.5-4.7-4.7c-0.6-0.3-2.2-1.4-2.8-0.7c-0.3,0.3-0.2,1.2-0.2,1.6c-0.1,0.6-0.2,1.3-0.3,1.9
	C211.2,716.7,210.7,718.1,209.9,719.3z"/>
<path class="st13" d="M245.8,564.6c-0.9,1.2-0.7,2.8-0.3,4.2c0.6,2.6,1.6,5,2.5,7.6c1.4,4.5,2.4,9.1,3.2,13.7
	c0.8,4.2,2.4,8.9,1.8,13.1c5.1,9.7,8.4,20.2,9.9,31c0.4,2.8-5.8,6.4-5.7,9.2c0.2,5.6,4.7,6,1.4,10.5c-0.2,0.2,1.2,5.2,1,5.4
	c-1.3,1.6-3,2.9-4.5,4.4c-1.8,2.1-3.4,4.4-4.7,6.9c-8.5,15.3-20.8,32.7-17,49.8c0.2,1.3-0.5,2.5-1.6,3.1c-1.1,0.5-2.3,0.8-3.6,0.8
	h-0.6c-2.8-3-3.2-7.7-3-11.9c1-19.4,10.7-37.2,15.4-56c1.7-6.8,2.7-13.8,3-20.8c1.1-23.4,1.5-48.2-5.1-70.7c-1.4-4.7-3-10-0.5-14.2
	c1.6-2.7,4.5-4.2,7.3-5.4c11.8-4.6,25-4.3,36.6,0.9c0,0.5,0,0.9,0,1.4c-0.3,2.2,0,4.4,0.7,6.5c0.4,0.9,0.7,1.8,0.7,2.8
	c0,0.1,0.3-3.8,0.3-3.7c-7.6,1.1-15.5,6.1-23.2,7.2c-4,0.4-7.9,1.3-11.6,2.6C247.2,563.3,246.4,563.8,245.8,564.6z"/>
<path class="st21" d="M193.1,523c-1,3.3-1.9,6.5-2.7,9.9c-0.4,1.1-0.4,2.4-0.3,3.5c0.2,1.1,0.9,2.1,1,3.2c0.2,1.8-1,3.3-1.7,4.9
	c-1.7,4.2,0.1,8.8,1.9,12.9l5.4,12.2l4.4,10c1.3,3,2.6,6,3.9,9c5.8,13.7,10.5,27.8,14.1,42.2c0.1,0.7,0.4,1.3,0.7,1.8
	c0.8,1,2.1,1.3,3.2,1.9c3.3,1.8,3.7,7.3,0.7,9.5c0.6,7.3-4.9,14.4-7.7,21.2c-6.5,15.6-5.3,33.2-7.6,50l2.5-1.5
	c2.4,1.1,2.3,4.5,3.6,6.9c2,3.5,6.7,4,10.8,3.7c1.2,0,2.5-0.3,3.6-0.8c1.1-0.6,1.8-1.8,1.6-3.1c-3.8-17.1,8.5-34.5,17-49.9
	c1.3-2.5,2.9-4.8,4.7-6.9c1.4-1.5,3.1-2.8,4.5-4.4c3.8-4.5,4.2-10.8,4-16.7c-0.6-13.8-4.2-27.2-10.6-39.4c0.7-4.2-1-8.9-1.8-13.1
	c-0.8-4.6-1.8-9.2-3.2-13.7c-0.8-2.5-1.9-5-2.5-7.6c-0.3-1.4-0.5-3.1,0.3-4.2c0.6-0.7,1.5-1.3,2.4-1.5c3.8-1.3,7.7-2.2,11.6-2.6
	l26.2-3.8c0.9-5.4,1.7-11.4,1.1-16.8c-1.3-10.2-8.5-18.7-18.4-21.6c-1.1-0.3-2.5-0.5-3.4,0.2C239.3,514,215.4,515.5,193.1,523z"/>
<path class="st10" d="M216.9,381.6c0.4,2.6,0,5.2-1.1,7.5c-0.8,1.3-1.8,2.4-3,3.3c-2.5,2-5.5,3.5-8.6,4.3c-1.9,0.5-3.9,0.8-5.2,2.2
	c-1.8,2.2-0.6,5.6,1,8c2.7,4.2,6.5,8,11.3,9.3c3.9,1,8,0.4,11.9,1.1c2.9,0.5,5.5,1.7,8.4,2.3c8.2,1.9,16.7-0.5,22.7-6.3
	c-4.2-3.2-8.5-6.6-10.7-11.5c-1.5-3.5-1.8-7.3-0.8-11c1-3.6,3.3-7.1,2.6-10.7s-4.3-6.2-7.9-7.4c-3.2-1-6.5-1.7-9.9-2
	c-1.9-0.2-13.6-2.8-14.3-1.6c-0.4,0.7,2,5,2.3,5.9C216.3,377.2,216.7,379.4,216.9,381.6z"/>
<circle class="st10" cx="231.6" cy="366.4" r="23.8"/>
<path class="st4" d="M219,405.6l16.1,2.7c4,0.8,8,1.2,12,1.2c2.2-0.2,4.4-0.2,6.6,0c1.5,0.2,3,0.8,4.5,1c1.9,0.2,3.8-0.1,5.7,0.1
	c3.5,0.5,6.4,2.9,9,5.2c3.1,2.7,6.5,5.9,6.7,10c0.1,0.5,0,0.9-0.2,1.4c-0.3,0.5-0.7,0.9-1.2,1.2c-3,2.4-4.6,6.1-6.7,9.3
	c-2.2,3.3-4.9,6.2-8,8.6c-0.7-0.5-2,0.7-1.7,1.5s1.1,1.3,1.3,2.1c0.6,1.8-1.7,3.2-2.6,4.8s-0.5,3.8-0.6,5.7c-0.1,2.1-1,4.2-1.2,6.3
	c-0.6,5,1.8,10.2,0.1,14.8c2.1-0.3,4,1.6,4.6,3.6c0.4,2.1,0.4,4.3-0.2,6.3c2.8,1.7,4.4,4.7,4.2,8c-0.1,0.5,0,1,0.2,1.4
	c0.2,0.2,0.5,0.4,0.8,0.5c3,1.2,5,4.2,5,7.5c-0.1,0.5,0,1.1,0.1,1.6c0.3,0.5,0.7,0.9,1.2,1.2c2.2,1.8,3.5,4.4,3.5,7.2
	c0,1.9-0.8,3.9-2.5,4.8c-3.4,1.7-7.1,2.4-10.8,3.2c-3.5,0.8-6.9,1.4-10.5,1.8c-3.3,0.3-6.5,0.4-9.8,0.3l-21.6-0.1
	c-6,0-12.1,0-18.2-0.5c-5.6-0.4-11.4-1.1-16.9,0.4c-0.7-1.2,0.4-2.5,1.1-3.7c0.8-1.6,1.2-3.3,1.2-5.1l1.4-14.4c0.3-2,0.3-4,0.1-6
	c-0.3-2.1-1.1-4.1-1.5-6.2c-0.8-4-0.1-8.2-0.2-12.3c-0.3-3.6-0.9-7.2-1.9-10.7l-4.2-17.5c-0.7-2.8-1-6.1-2.1-8.8
	c-3.3-8.4-6.7-16.8-10.3-25.1c-0.3-0.7-0.2-1.6,0.2-2.2l3.6-6.4c1-1.8,2-3.6,3.3-5.2c3-3.8,7.3-6.4,12-7.4c4.8-0.9,9.7-0.2,14,2.1
	c1.7,0.9,3.2,2,4.9,2.8C212.3,404.3,215.8,405.8,219,405.6z"/>
<path class="st4" d="M276.2,421.3l5.6,7.5c0.5,0.6,0.9,1.3,1.3,2.1c0.9,2,0.4,4.3,0.8,6.4c0.3,1.3,0.9,2.6,1.6,3.8
	c2.1,3.7,4.5,7.3,7.1,10.6c1.2,1.7,2.7,3.2,4.4,4.4c1.7,1.2,3.9,1.6,6,1.1c-0.9,0.3-1.6,1-2,1.8c-2.1,4.2-2.3,9.2-1.4,13.9
	c0.3,1.6,0.8,3.1,1.6,4.5c0.8,1.4,2.1,2.5,3.6,3.1c-0.4,2.9-3.1,4.9-5.9,4.5c-0.1,0-0.2,0-0.3,0c-1.1-0.3-2.1-0.9-3.1-1.5l-9-5.8
	c-1.5-0.9-2.9-2-4.2-3.2c-1.7-1.7-2.9-3.8-4.5-5.5c-2.8-3-6.9-4.7-8.9-8.3c-1.2-2.2-1.5-4.9-2.2-7.3c-0.5-1.6-1.2-3.1-1.7-4.7
	c-1.5-4.9-0.4-10.4,1.9-15S272.9,425.2,276.2,421.3z"/>
<path class="st19" d="M255,352.8c-2.2-3.4-5-6.4-8.4-8.7c-4.4-3.3-9.5-6.1-15.1-6.4c-2.3-0.1-4.6,0.3-6.8,1.1
	c-0.1-6.7-1.8-11.2-5.9-10.5c-7.8,1.2-16.5,4.3-19.5,11.6c-2.2,5.5-0.5,11.8,0.1,17.7c0.2,1.6,0.2,3.2-0.2,4.7
	c-0.6,2.5-2.4,4.5-4.1,6.5c-2.4,2.5-4.4,5.3-5.9,8.3c-1.4,3.1-1.9,6.9-0.4,10c0.5,0.8,0.8,1.7,1,2.6c0.1,2-2,3.3-3.6,4.6
	c-5.9,4.8-5.6,13.7-5.7,21.3c-0.1,15.6-3.6,30.9-10.2,45c5.1,2.6,11.2,1.8,15.4-2c-0.8,3.5-2,6.9-3.5,10.1c5,2.4,10.9-1.5,13.4-6.5
	s2.8-10.6,4.6-15.9s4.9-9.8,6.2-15c0.4-1.7,0.7-3.6,1.8-5c0.9-1,1.9-1.9,3.1-2.7c5.1-3.7-2.4-31.5-0.4-37.5
	c3,0.7,8.4-13.7,11.6-28.3c2.2,0.7,4.5,1,6.8,0.7c0.8-0.2,1.6-0.2,2.4-0.2c0.7,0.2,1.5,0.5,2.1,0.9c2.3,1.4,4.7,2.7,7.2,3.7
	c5.2,1.9,10.8,1.7,16.3,1.4C258.1,360.5,257.3,356.3,255,352.8z"/>
<g class="st22">
	<path d="M173.1,460.7c6.6-14.1,10.1-29.4,10.2-45c0-7.6-0.2-16.5,5.7-21.3c1.6-1.3,3.7-2.6,3.6-4.6c-0.2-0.9-0.5-1.8-1-2.6
		c-1.5-3.1-1-6.8,0.4-10c1.6-3.1,3.6-5.9,5.9-8.3c1.7-1.9,3.5-4,4.1-6.5c0.3-1.5,0.4-3.1,0.2-4.7c-0.6-6-2.3-12.2-0.1-17.7
		c2.9-7.1,11.1-10.1,18.7-11.5c-0.6-0.2-1.3-0.3-2-0.1c-7.8,1.2-16.5,4.3-19.5,11.6c-2.2,5.5-0.5,11.8,0.1,17.7
		c0.2,1.6,0.2,3.2-0.2,4.7c-0.6,2.5-2.4,4.5-4.1,6.5c-2.4,2.5-4.4,5.3-5.9,8.3c-1.4,3.1-1.9,6.9-0.4,10c0.5,0.8,0.8,1.7,1,2.6
		c0.1,2-2,3.3-3.6,4.6c-5.9,4.9-5.6,13.7-5.7,21.3c-0.1,15.6-3.6,30.9-10.2,45c2.3,1.2,4.9,1.7,7.6,1.4
		C176.3,462,174.6,461.5,173.1,460.7z"/>
	<path d="M185.1,468.8c1.5-3.2,2.7-6.6,3.5-10.1c-1,0.9-2.1,1.7-3.4,2.2c-0.8,2.7-1.7,5.3-2.9,7.8c1.4,0.7,3,0.9,4.6,0.6
		C186.2,469.2,185.6,469,185.1,468.8z"/>
	<path d="M227.6,338.8c1.4-0.6,3-0.9,4.5-1.1l-0.5,0c-1.3-0.1-2.7,0-4,0.3C227.6,338.3,227.6,338.6,227.6,338.8z"/>
	<path d="M243.8,363c-2.5-1-4.9-2.3-7.2-3.7c-0.6-0.4-1.4-0.7-2.1-0.9c-0.7-0.1-1.5,0-2.2,0.1c0.5,0.2,1,0.4,1.5,0.7
		c2.3,1.4,4.7,2.7,7.2,3.7c3.9,1.3,8,1.8,12,1.6C249.9,364.6,246.8,364.1,243.8,363z"/>
	<path d="M225.3,358c0,0.2-0.1,0.4-0.1,0.6c1.2,0.2,2.4,0.2,3.5,0.1C227.6,358.6,226.4,358.4,225.3,358z"/>
</g>
<path class="st10" d="M175.9,468.2c0.3,2.5-0.6,5.1-2.3,6.9c-1,1-2.1,1.8-3.3,2.4c-1.2,0.8-2.5,1.3-3.9,1.5c-1.9-0.1-3.7-0.8-5-2.2
	c-4.1-3.6-6.2-9-8.1-14.2c-2.5-6.8-5.1-13.7-6.1-20.9c-1.2-7.7-0.7-15.7-2.9-23.2c2-3.9,3.2-8.3,5.4-12c1.4-2.3,2.7-4.6,3.8-7
	c2.1-5.2,2.3-10.9,0.6-16.2c0.8-0.5,1.9-0.5,2.6,0.1c0.7,0.6,1.3,1.4,1.6,2.3c1.3,3,1.8,6.3,1.6,9.5c-0.2,0.8-0.1,1.6,0.3,2.3
	c0.6,0.7,1.6,1.1,2.5,1.1c2-0.1,4-0.5,5.9-1.1c5.9-1.5,12-2,18.1-1.5c1.2,0,2.4,0.3,3.5,0.9c1.1,0.6,1.8,1.7,1.8,3l-14.4,2.1
	c-1.1,0.1-2.1,0.4-3,1c-0.9,0.6-1.1,1.9-0.5,2.8c0,0,0,0,0.1,0.1c0.3,0.3,0.6,0.5,1,0.7c1.3,1,1.5,2.9,0.4,4.2
	c-0.2,0.2-0.3,0.4-0.6,0.5c-0.4,0.2-0.7,0.4-1,0.7c-0.6,0.8,0.2,1.8,0.4,2.8c0.2,1.4-0.5,2.9-1.7,3.6c-1.2,0.7-2.6,1.1-4,1.4
	c-2.8,0.7-5.6,1.6-8.2,2.8c-0.9,0.3-1.6,0.9-2.1,1.6c-0.7,1.2-0.2,2.7,0.2,4l3.8,10.1c0.6,1.6,1.2,3.2,1.9,4.7c1,2,2.1,3.9,3.1,5.8
	c0.9,1.9,1.7,3.7,2.4,5.7C171.4,459.6,175.2,462.7,175.9,468.2z"/>
<path class="st10" d="M342.9,399.9c-0.8,0.6-1.4,1.4-1.6,2.4c-0.1,0.4,0,0.8,0.4,1.1c0.2,0.1,0.5,0.1,0.7,0c1.1-0.2,2.1-0.7,2.9-1.4
	c-0.3,0.2-0.6,0.4-0.9,0.7c-0.2,0.3-0.3,0.7-0.1,1.1c0.2,0.3,0.6,0.5,1,0.5c1.4,0.3,2.8,0.2,4.2-0.2c-0.6,0.2-1.2,0.6-1.8,1
	c-0.5,0.5-0.8,1.1-0.8,1.8c0,0.3,0.1,0.5,0.3,0.7c0.1,0.1,0.3,0.1,0.5,0.2c1.3,0.2,2.6,0.2,3.9,0c0.7,0,1.3-0.4,1.6-1
	c0.1-0.7,0-1.3-0.4-1.9c-0.7-1.5-1-3.1-1-4.8c0-0.3,0-0.7-0.1-1c-0.2-0.3-0.5-0.5-0.9-0.6c-1.4-0.6-3.2-1.5-4.8-1
	C344.8,398.1,343.8,398.9,342.9,399.9z"/>
<path class="st4" d="M374.6,367.9l-47.7,25.8c-0.5,0.3-0.7,0.9-0.4,1.4c0.1,0.2,0.3,0.3,0.5,0.4l8.1,3.1c0.5,0.2,0.9,0.5,1.1,1
	l6.3,13c0.1,0.6,1.2,0.7,1.2,0.2l-1-10.8c0.1-0.8,0.4-1.6,0.9-2.2l24.7-24.2c0.1-0.1,0.3-0.2,0.5-0.2c0.3,0.1,0.5,0.4,0.4,0.7
	c0,0.1-0.1,0.2-0.1,0.2l-21.3,26.1c-0.5,0.6-0.7,1.4-0.8,2.2l-1.3,9.3c0.1,0.8,0.7,1.1,1.2,0.4l4.6-5.4c0.3-0.4,0.9-0.5,1.3-0.2
	l11.9,8.6c0.5,0.3,1.1,0.2,1.4-0.3c0.1-0.1,0.1-0.2,0.1-0.3L376,369c0.1-0.5-0.3-1.1-0.8-1.2C375,367.8,374.8,367.8,374.6,367.9
	L374.6,367.9z"/>
<ellipse class="st4" cx="917.1" cy="803.4" rx="59.5" ry="11.4"/>
<ellipse class="st12" cx="916.1" cy="798.5" rx="6.9" ry="9.1"/>
<ellipse class="st12" cx="916.1" cy="787.5" rx="6.9" ry="9.1"/>
<ellipse class="st12" cx="916.1" cy="776.4" rx="6.9" ry="9.1"/>
<ellipse class="st12" cx="916.1" cy="765.3" rx="6.9" ry="9.1"/>
<ellipse class="st12" cx="916.1" cy="754.2" rx="6.9" ry="9.1"/>
<ellipse class="st12" cx="916.1" cy="743.2" rx="6.9" ry="9.1"/>
<ellipse class="st12" cx="916.1" cy="732.1" rx="6.9" ry="9.1"/>
<path class="st4" d="M942,656.3c0.9-1.2,1.8-2.5,2.6-3.8l-18.2-3l19.7,0.2c3.8-8.3,4-17.8,0.6-26.3L920.3,637l24.3-17.9
	c-9.2-15.9-29.4-21.3-45.3-12.2c-15.9,9.2-21.3,29.4-12.2,45.3c0.8,1.4,1.7,2.7,2.7,4c-1.5,1.9-2.7,3.9-3.8,6l23.6,12.3l-25.2-8.5
	c-3.6,10.6-1.6,22.3,5.3,31.1c-11.3,14.4-8.8,35.2,5.6,46.6c14.4,11.3,35.2,8.8,46.6-5.6c9.5-12,9.5-29,0-41
	C951.4,685.2,951.4,668.2,942,656.3L942,656.3z"/>
<path class="st8" d="M882.8,676.8c0,7.4,2.5,14.7,7.1,20.5c-11.3,14.4-8.8,35.2,5.6,46.6c14.4,11.3,35.2,8.8,46.6-5.6
	c9.5-12,9.5-29,0-41C946.5,691.6,882.8,673,882.8,676.8z"/>
<ellipse class="st4" cx="358" cy="772.8" rx="34" ry="6.5"/>
<ellipse class="st12" cx="358.6" cy="770" rx="4" ry="5.2"/>
<ellipse class="st12" cx="358.6" cy="763.7" rx="4" ry="5.2"/>
<ellipse class="st12" cx="358.6" cy="757.3" rx="4" ry="5.2"/>
<ellipse class="st12" cx="358.6" cy="751" rx="4" ry="5.2"/>
<ellipse class="st12" cx="358.6" cy="744.7" rx="4" ry="5.2"/>
<ellipse class="st12" cx="358.6" cy="738.4" rx="4" ry="5.2"/>
<ellipse class="st12" cx="358.6" cy="732" rx="4" ry="5.2"/>
<path class="st4" d="M343.8,688.8c-0.5-0.7-1-1.4-1.5-2.2l10.4-1.7l-11.2,0.1c-2.2-4.7-2.3-10.2-0.4-15l15.1,7.8l-13.9-10.2
	c5.2-9.1,16.8-12.2,25.9-7s12.2,16.8,7,25.9c-0.5,0.8-1,1.6-1.6,2.4c0.8,1.1,1.6,2.2,2.2,3.5l-13.5,7l14.4-4.8c0.7,2,1,4,1,6.1
	c0,4.2-1.4,8.4-4.1,11.7c6.5,8.2,5,20.1-3.2,26.6c-8.2,6.5-20.1,5-26.6-3.2c-5.4-6.9-5.4-16.5,0-23.4
	C338.4,705.3,338.4,695.7,343.8,688.8L343.8,688.8z"/>
<path class="st8" d="M377.6,700.5c0,4.2-1.4,8.4-4.1,11.7c6.5,8.2,5,20.1-3.2,26.6c-8.2,6.5-20.1,5-26.6-3.2
	c-5.4-6.9-5.4-16.5,0-23.4C341.3,709,377.6,698.3,377.6,700.5z"/>
<ellipse class="st4" cx="105.2" cy="720.2" rx="22.8" ry="4.4"/>
<ellipse class="st12" cx="105.6" cy="718.4" rx="2.7" ry="3.5"/>
<ellipse class="st12" cx="105.6" cy="714.1" rx="2.7" ry="3.5"/>
<ellipse class="st12" cx="105.6" cy="709.9" rx="2.7" ry="3.5"/>
<ellipse class="st12" cx="105.6" cy="705.6" rx="2.7" ry="3.5"/>
<ellipse class="st12" cx="105.6" cy="701.4" rx="2.7" ry="3.5"/>
<ellipse class="st12" cx="105.6" cy="697.1" rx="2.7" ry="3.5"/>
<ellipse class="st12" cx="105.6" cy="692.9" rx="2.7" ry="3.5"/>
<path class="st4" d="M95.6,663.8c-0.4-0.5-0.7-0.9-1-1.5l7-1.1h-7.6c-1.5-3.2-1.6-6.8-0.2-10.1l10.1,5.3l-9.4-6.9
	c3.5-6.1,11.2-8.3,17.4-4.8s8.3,11.2,4.8,17.4c-0.3,0.6-0.7,1.2-1.1,1.7c0.6,0.7,1.1,1.5,1.4,2.3l-9,4.7l9.7-3.2
	c0.4,1.3,0.7,2.7,0.7,4.1c0,2.9-1,5.6-2.7,7.9c4.4,5.5,3.4,13.5-2.1,17.9c-5.5,4.4-13.5,3.4-17.9-2.1c-3.7-4.6-3.7-11.2,0-15.8
	C92,674.9,92,668.4,95.6,663.8L95.6,663.8z"/>
<path class="st8" d="M118.3,671.6c0,2.9-1,5.6-2.7,7.9c4.4,5.5,3.4,13.5-2.1,17.9c-5.5,4.4-13.5,3.4-17.9-2.1
	c-3.7-4.6-3.7-11.2,0-15.8C93.9,677.4,118.3,670.2,118.3,671.6z"/>
</svg>
